<svg width="402" height="202" viewBox="0 0 402 202" fill="none" xmlns="http://www.w3.org/2000/svg">
<rect x="1" y="1" width="400" height="200" rx="8" fill="#030508" stroke="#7DD3FC"/>
<path d="M132.624 51.9341H134.522C134.484 52.5562 134.312 53.1084 134.008 53.5908C133.707 54.0732 133.286 54.4499 132.745 54.7207C132.207 54.9915 131.56 55.127 130.802 55.127C130.21 55.127 129.679 55.0254 129.209 54.8223C128.739 54.6149 128.337 54.3187 128.003 53.9336C127.673 53.5485 127.421 53.083 127.248 52.5371C127.074 51.9912 126.987 51.3797 126.987 50.7026V50.0615C126.987 49.3844 127.076 48.7729 127.254 48.2271C127.436 47.6769 127.694 47.2093 128.028 46.8242C128.367 46.4391 128.771 46.1429 129.241 45.9355C129.71 45.7282 130.235 45.6245 130.815 45.6245C131.585 45.6245 132.235 45.7642 132.764 46.0435C133.297 46.3228 133.709 46.7078 134.001 47.1987C134.298 47.6896 134.475 48.2482 134.535 48.8745H132.63C132.609 48.5021 132.535 48.1868 132.408 47.9287C132.281 47.6663 132.089 47.4696 131.831 47.3384C131.577 47.203 131.238 47.1353 130.815 47.1353C130.498 47.1353 130.22 47.1945 129.983 47.313C129.746 47.4315 129.548 47.6113 129.387 47.8525C129.226 48.0938 129.105 48.3984 129.025 48.7666C128.949 49.1305 128.911 49.5579 128.911 50.0488V50.7026C128.911 51.1808 128.947 51.6019 129.019 51.9658C129.09 52.3255 129.201 52.6302 129.349 52.8799C129.501 53.1253 129.696 53.3115 129.933 53.4385C130.174 53.5612 130.464 53.6226 130.802 53.6226C131.2 53.6226 131.528 53.5591 131.786 53.4321C132.044 53.3052 132.241 53.1169 132.376 52.8672C132.516 52.6175 132.599 52.3065 132.624 51.9341ZM137.486 49.6299V55H135.658V48.1318H137.378L137.486 49.6299ZM139.556 48.0874L139.524 49.7822C139.435 49.7695 139.327 49.759 139.2 49.7505C139.077 49.7378 138.965 49.7314 138.864 49.7314C138.606 49.7314 138.381 49.7653 138.191 49.833C138.005 49.8965 137.848 49.9917 137.721 50.1187C137.598 50.2456 137.505 50.4001 137.442 50.582C137.383 50.764 137.349 50.9714 137.34 51.2041L136.972 51.0898C136.972 50.6455 137.017 50.2371 137.105 49.8647C137.194 49.4881 137.323 49.1602 137.493 48.8809C137.666 48.6016 137.878 48.3857 138.127 48.2334C138.377 48.0811 138.663 48.0049 138.984 48.0049C139.086 48.0049 139.19 48.0133 139.295 48.0303C139.401 48.043 139.488 48.062 139.556 48.0874ZM142.349 48.1318V55H140.514V48.1318H142.349ZM140.4 46.3418C140.4 46.0752 140.493 45.8551 140.679 45.6816C140.865 45.5081 141.115 45.4214 141.428 45.4214C141.737 45.4214 141.985 45.5081 142.171 45.6816C142.361 45.8551 142.457 46.0752 142.457 46.3418C142.457 46.6084 142.361 46.8285 142.171 47.002C141.985 47.1755 141.737 47.2622 141.428 47.2622C141.115 47.2622 140.865 47.1755 140.679 47.002C140.493 46.8285 140.4 46.6084 140.4 46.3418ZM147.021 55.127C146.487 55.127 146.009 55.0423 145.586 54.873C145.163 54.6995 144.803 54.4604 144.507 54.1558C144.215 53.8511 143.991 53.4977 143.834 53.0957C143.677 52.6895 143.599 52.2578 143.599 51.8008V51.5469C143.599 51.0264 143.673 50.5503 143.821 50.1187C143.969 49.687 144.181 49.3125 144.456 48.9951C144.735 48.6777 145.074 48.4344 145.472 48.2651C145.869 48.0916 146.318 48.0049 146.817 48.0049C147.304 48.0049 147.736 48.0853 148.112 48.2461C148.489 48.4069 148.804 48.6354 149.058 48.9316C149.316 49.2279 149.511 49.5833 149.642 49.998C149.773 50.4085 149.839 50.8656 149.839 51.3691V52.1309H144.38V50.9121H148.042V50.7725C148.042 50.5186 147.996 50.2922 147.903 50.0933C147.814 49.8901 147.679 49.7293 147.497 49.6108C147.315 49.4924 147.082 49.4331 146.798 49.4331C146.557 49.4331 146.35 49.486 146.176 49.5918C146.003 49.6976 145.861 49.8457 145.751 50.0361C145.645 50.2266 145.565 50.4508 145.51 50.709C145.459 50.9629 145.434 51.2422 145.434 51.5469V51.8008C145.434 52.0758 145.472 52.3298 145.548 52.5625C145.628 52.7952 145.74 52.9963 145.884 53.1655C146.032 53.3348 146.21 53.466 146.417 53.5591C146.629 53.6522 146.868 53.6987 147.135 53.6987C147.465 53.6987 147.772 53.6353 148.055 53.5083C148.343 53.3771 148.59 53.1803 148.798 52.918L149.687 53.8828C149.543 54.0902 149.346 54.2891 149.096 54.4795C148.851 54.6699 148.555 54.8265 148.208 54.9492C147.861 55.0677 147.465 55.127 147.021 55.127ZM157.831 53.1021C157.831 52.9709 157.792 52.8524 157.716 52.7466C157.64 52.6408 157.498 52.5435 157.291 52.4546C157.088 52.3615 156.794 52.2769 156.409 52.2007C156.062 52.1245 155.738 52.0293 155.438 51.915C155.141 51.7965 154.883 51.6548 154.663 51.4897C154.447 51.3247 154.278 51.13 154.155 50.9058C154.033 50.6772 153.971 50.417 153.971 50.125C153.971 49.8372 154.033 49.5664 154.155 49.3125C154.282 49.0586 154.462 48.8343 154.695 48.6396C154.932 48.4408 155.22 48.2863 155.558 48.1763C155.901 48.062 156.286 48.0049 156.713 48.0049C157.31 48.0049 157.822 48.1001 158.25 48.2905C158.681 48.481 159.011 48.7433 159.24 49.0776C159.472 49.4077 159.589 49.7843 159.589 50.2075H157.761C157.761 50.0298 157.723 49.8711 157.646 49.7314C157.575 49.5876 157.46 49.4754 157.304 49.395C157.151 49.3104 156.952 49.2681 156.707 49.2681C156.504 49.2681 156.328 49.304 156.18 49.376C156.032 49.4437 155.918 49.5368 155.837 49.6553C155.761 49.7695 155.723 49.8965 155.723 50.0361C155.723 50.1419 155.744 50.2371 155.787 50.3218C155.833 50.4022 155.907 50.4762 156.009 50.5439C156.11 50.6117 156.242 50.6751 156.402 50.7344C156.567 50.7894 156.771 50.8402 157.012 50.8867C157.507 50.9883 157.949 51.1216 158.338 51.2866C158.728 51.4474 159.037 51.6675 159.265 51.9468C159.494 52.2218 159.608 52.5837 159.608 53.0322C159.608 53.3369 159.54 53.6162 159.405 53.8701C159.269 54.124 159.075 54.3462 158.821 54.5366C158.567 54.7228 158.262 54.8688 157.907 54.9746C157.556 55.0762 157.16 55.127 156.72 55.127C156.081 55.127 155.539 55.0127 155.095 54.7842C154.655 54.5557 154.32 54.2658 154.092 53.9146C153.868 53.5591 153.755 53.1951 153.755 52.8228H155.488C155.497 53.0724 155.56 53.2734 155.679 53.4258C155.801 53.5781 155.956 53.6882 156.142 53.7559C156.333 53.8236 156.538 53.8574 156.758 53.8574C156.995 53.8574 157.192 53.8257 157.348 53.7622C157.505 53.6945 157.623 53.6056 157.704 53.4956C157.788 53.3813 157.831 53.2502 157.831 53.1021ZM164.857 53.356V48.1318H166.686V55H164.965L164.857 53.356ZM165.061 51.9468L165.6 51.9341C165.6 52.3911 165.547 52.8164 165.441 53.21C165.336 53.5993 165.177 53.9378 164.965 54.2256C164.754 54.5091 164.487 54.7313 164.166 54.8921C163.844 55.0487 163.465 55.127 163.029 55.127C162.695 55.127 162.386 55.0804 162.103 54.9873C161.823 54.89 161.582 54.7397 161.379 54.5366C161.18 54.3293 161.023 54.0648 160.909 53.7432C160.799 53.4173 160.744 53.0259 160.744 52.5688V48.1318H162.572V52.5815C162.572 52.7847 162.596 52.9561 162.642 53.0957C162.693 53.2354 162.763 53.3496 162.852 53.4385C162.94 53.5273 163.044 53.5908 163.163 53.6289C163.285 53.667 163.421 53.686 163.569 53.686C163.945 53.686 164.242 53.6099 164.458 53.4575C164.678 53.3052 164.832 53.0978 164.921 52.8354C165.014 52.5688 165.061 52.2726 165.061 51.9468ZM171.789 53.4512V50.3916C171.789 50.1715 171.753 49.9832 171.681 49.8267C171.609 49.6659 171.497 49.541 171.345 49.4521C171.197 49.3633 171.004 49.3188 170.767 49.3188C170.564 49.3188 170.388 49.3548 170.24 49.4268C170.092 49.4945 169.978 49.5939 169.897 49.7251C169.817 49.8521 169.777 50.0023 169.777 50.1758H167.949C167.949 49.8838 168.016 49.6066 168.152 49.3442C168.287 49.0819 168.484 48.8512 168.742 48.6523C169 48.4492 169.307 48.2905 169.663 48.1763C170.022 48.062 170.424 48.0049 170.869 48.0049C171.402 48.0049 171.876 48.0938 172.291 48.2715C172.705 48.4492 173.031 48.7158 173.268 49.0713C173.509 49.4268 173.63 49.8711 173.63 50.4043V53.3433C173.63 53.7199 173.653 54.0288 173.7 54.27C173.746 54.507 173.814 54.7144 173.903 54.8921V55H172.056C171.967 54.8138 171.899 54.5811 171.853 54.3018C171.81 54.0182 171.789 53.7347 171.789 53.4512ZM172.03 50.8169L172.043 51.8516H171.021C170.78 51.8516 170.57 51.8791 170.393 51.9341C170.215 51.9891 170.069 52.0674 169.955 52.1689C169.84 52.2663 169.756 52.3805 169.701 52.5117C169.65 52.6429 169.625 52.7868 169.625 52.9434C169.625 53.0999 169.66 53.2417 169.732 53.3687C169.804 53.4914 169.908 53.5887 170.043 53.6606C170.179 53.7284 170.338 53.7622 170.52 53.7622C170.795 53.7622 171.034 53.7072 171.237 53.5972C171.44 53.4871 171.597 53.3517 171.707 53.1909C171.821 53.0301 171.88 52.8778 171.884 52.7339L172.367 53.5083C172.299 53.6818 172.206 53.8617 172.087 54.0479C171.973 54.234 171.827 54.4097 171.649 54.5747C171.472 54.7355 171.258 54.8688 171.008 54.9746C170.759 55.0762 170.462 55.127 170.12 55.127C169.684 55.127 169.288 55.0402 168.933 54.8667C168.581 54.689 168.302 54.4456 168.095 54.1367C167.892 53.8236 167.79 53.4681 167.79 53.0703C167.79 52.7106 167.858 52.3911 167.993 52.1118C168.129 51.8325 168.327 51.5977 168.59 51.4072C168.856 51.2126 169.189 51.0666 169.586 50.9692C169.984 50.8677 170.445 50.8169 170.97 50.8169H172.03ZM184.332 53.5146V55H179.679V53.5146H184.332ZM180.295 45.7578V55H178.391V45.7578H180.295ZM187.239 48.1318V55H185.405V48.1318H187.239ZM185.291 46.3418C185.291 46.0752 185.384 45.8551 185.57 45.6816C185.756 45.5081 186.006 45.4214 186.319 45.4214C186.628 45.4214 186.875 45.5081 187.062 45.6816C187.252 45.8551 187.347 46.0752 187.347 46.3418C187.347 46.6084 187.252 46.8285 187.062 47.002C186.875 47.1755 186.628 47.2622 186.319 47.2622C186.006 47.2622 185.756 47.1755 185.57 47.002C185.384 46.8285 185.291 46.6084 185.291 46.3418ZM192.463 53.1021C192.463 52.9709 192.425 52.8524 192.349 52.7466C192.273 52.6408 192.131 52.5435 191.924 52.4546C191.721 52.3615 191.427 52.2769 191.042 52.2007C190.694 52.1245 190.371 52.0293 190.07 51.915C189.774 51.7965 189.516 51.6548 189.296 51.4897C189.08 51.3247 188.911 51.13 188.788 50.9058C188.665 50.6772 188.604 50.417 188.604 50.125C188.604 49.8372 188.665 49.5664 188.788 49.3125C188.915 49.0586 189.095 48.8343 189.328 48.6396C189.565 48.4408 189.852 48.2863 190.191 48.1763C190.534 48.062 190.919 48.0049 191.346 48.0049C191.943 48.0049 192.455 48.1001 192.882 48.2905C193.314 48.481 193.644 48.7433 193.873 49.0776C194.105 49.4077 194.222 49.7843 194.222 50.2075H192.394C192.394 50.0298 192.355 49.8711 192.279 49.7314C192.207 49.5876 192.093 49.4754 191.937 49.395C191.784 49.3104 191.585 49.2681 191.34 49.2681C191.137 49.2681 190.961 49.304 190.813 49.376C190.665 49.4437 190.551 49.5368 190.47 49.6553C190.394 49.7695 190.356 49.8965 190.356 50.0361C190.356 50.1419 190.377 50.2371 190.419 50.3218C190.466 50.4022 190.54 50.4762 190.642 50.5439C190.743 50.6117 190.874 50.6751 191.035 50.7344C191.2 50.7894 191.403 50.8402 191.645 50.8867C192.14 50.9883 192.582 51.1216 192.971 51.2866C193.361 51.4474 193.669 51.6675 193.898 51.9468C194.126 52.2218 194.241 52.5837 194.241 53.0322C194.241 53.3369 194.173 53.6162 194.038 53.8701C193.902 54.124 193.708 54.3462 193.454 54.5366C193.2 54.7228 192.895 54.8688 192.54 54.9746C192.188 55.0762 191.793 55.127 191.353 55.127C190.714 55.127 190.172 55.0127 189.728 54.7842C189.287 54.5557 188.953 54.2658 188.725 53.9146C188.5 53.5591 188.388 53.1951 188.388 52.8228H190.121C190.13 53.0724 190.193 53.2734 190.312 53.4258C190.434 53.5781 190.589 53.6882 190.775 53.7559C190.965 53.8236 191.171 53.8574 191.391 53.8574C191.628 53.8574 191.824 53.8257 191.981 53.7622C192.138 53.6945 192.256 53.6056 192.336 53.4956C192.421 53.3813 192.463 53.2502 192.463 53.1021ZM198.792 48.1318V49.4268H194.793V48.1318H198.792ZM195.783 46.437H197.611V52.9307C197.611 53.1296 197.637 53.2819 197.688 53.3877C197.743 53.4935 197.823 53.5675 197.929 53.6099C198.035 53.6479 198.168 53.667 198.329 53.667C198.443 53.667 198.544 53.6628 198.633 53.6543C198.726 53.6416 198.805 53.6289 198.868 53.6162L198.875 54.9619C198.718 55.0127 198.549 55.0529 198.367 55.0825C198.185 55.1121 197.984 55.127 197.764 55.127C197.362 55.127 197.01 55.0614 196.71 54.9302C196.414 54.7948 196.185 54.5789 196.024 54.2827C195.864 53.9865 195.783 53.5972 195.783 53.1147V46.437ZM203.54 53.4512V50.3916C203.54 50.1715 203.504 49.9832 203.432 49.8267C203.36 49.6659 203.248 49.541 203.096 49.4521C202.948 49.3633 202.755 49.3188 202.518 49.3188C202.315 49.3188 202.139 49.3548 201.991 49.4268C201.843 49.4945 201.729 49.5939 201.648 49.7251C201.568 49.8521 201.528 50.0023 201.528 50.1758H199.7C199.7 49.8838 199.767 49.6066 199.903 49.3442C200.038 49.0819 200.235 48.8512 200.493 48.6523C200.751 48.4492 201.058 48.2905 201.414 48.1763C201.773 48.062 202.175 48.0049 202.62 48.0049C203.153 48.0049 203.627 48.0938 204.042 48.2715C204.456 48.4492 204.782 48.7158 205.019 49.0713C205.26 49.4268 205.381 49.8711 205.381 50.4043V53.3433C205.381 53.7199 205.404 54.0288 205.451 54.27C205.497 54.507 205.565 54.7144 205.654 54.8921V55H203.807C203.718 54.8138 203.65 54.5811 203.604 54.3018C203.561 54.0182 203.54 53.7347 203.54 53.4512ZM203.781 50.8169L203.794 51.8516H202.772C202.531 51.8516 202.321 51.8791 202.144 51.9341C201.966 51.9891 201.82 52.0674 201.706 52.1689C201.591 52.2663 201.507 52.3805 201.452 52.5117C201.401 52.6429 201.375 52.7868 201.375 52.9434C201.375 53.0999 201.411 53.2417 201.483 53.3687C201.555 53.4914 201.659 53.5887 201.794 53.6606C201.93 53.7284 202.089 53.7622 202.271 53.7622C202.546 53.7622 202.785 53.7072 202.988 53.5972C203.191 53.4871 203.347 53.3517 203.458 53.1909C203.572 53.0301 203.631 52.8778 203.635 52.7339L204.118 53.5083C204.05 53.6818 203.957 53.8617 203.838 54.0479C203.724 54.234 203.578 54.4097 203.4 54.5747C203.223 54.7355 203.009 54.8688 202.759 54.9746C202.51 55.0762 202.213 55.127 201.871 55.127C201.435 55.127 201.039 55.0402 200.684 54.8667C200.332 54.689 200.053 54.4456 199.846 54.1367C199.643 53.8236 199.541 53.4681 199.541 53.0703C199.541 52.7106 199.609 52.3911 199.744 52.1118C199.88 51.8325 200.078 51.5977 200.341 51.4072C200.607 51.2126 200.94 51.0666 201.337 50.9692C201.735 50.8677 202.196 50.8169 202.721 50.8169H203.781ZM214.083 53.502V45.25H215.924V55H214.268L214.083 53.502ZM209.742 51.6484V51.5151C209.742 50.9904 209.801 50.5143 209.919 50.0869C210.038 49.6553 210.211 49.285 210.44 48.9761C210.668 48.6672 210.95 48.4281 211.284 48.2588C211.618 48.0895 211.999 48.0049 212.427 48.0049C212.829 48.0049 213.18 48.0895 213.48 48.2588C213.785 48.4281 214.043 48.6693 214.255 48.9824C214.471 49.2913 214.644 49.6574 214.775 50.0806C214.907 50.4995 215.002 50.9587 215.061 51.458V51.75C215.002 52.2282 214.907 52.6725 214.775 53.083C214.644 53.4935 214.471 53.8532 214.255 54.1621C214.043 54.4668 213.785 54.7038 213.48 54.873C213.176 55.0423 212.82 55.127 212.414 55.127C211.987 55.127 211.606 55.0402 211.271 54.8667C210.941 54.6932 210.662 54.4499 210.434 54.1367C210.209 53.8236 210.038 53.4554 209.919 53.0322C209.801 52.609 209.742 52.1478 209.742 51.6484ZM211.57 51.5151V51.6484C211.57 51.932 211.591 52.1965 211.633 52.4419C211.68 52.6873 211.754 52.9053 211.855 53.0957C211.961 53.2819 212.097 53.4279 212.262 53.5337C212.431 53.6353 212.636 53.686 212.877 53.686C213.191 53.686 213.449 53.6162 213.652 53.4766C213.855 53.3327 214.009 53.1359 214.115 52.8862C214.225 52.6366 214.289 52.3488 214.306 52.0229V51.1914C214.293 50.9248 214.255 50.6857 214.191 50.4741C214.132 50.2583 214.043 50.0742 213.925 49.9219C213.811 49.7695 213.667 49.651 213.493 49.5664C213.324 49.4818 213.123 49.4395 212.89 49.4395C212.653 49.4395 212.45 49.4945 212.281 49.6045C212.111 49.7103 211.974 49.8563 211.868 50.0425C211.767 50.2287 211.69 50.4487 211.64 50.7026C211.593 50.9523 211.57 51.2231 211.57 51.5151ZM220.514 55.127C219.98 55.127 219.502 55.0423 219.079 54.873C218.656 54.6995 218.296 54.4604 218 54.1558C217.708 53.8511 217.484 53.4977 217.327 53.0957C217.171 52.6895 217.092 52.2578 217.092 51.8008V51.5469C217.092 51.0264 217.166 50.5503 217.314 50.1187C217.463 49.687 217.674 49.3125 217.949 48.9951C218.229 48.6777 218.567 48.4344 218.965 48.2651C219.363 48.0916 219.811 48.0049 220.311 48.0049C220.797 48.0049 221.229 48.0853 221.605 48.2461C221.982 48.4069 222.297 48.6354 222.551 48.9316C222.809 49.2279 223.004 49.5833 223.135 49.998C223.266 50.4085 223.332 50.8656 223.332 51.3691V52.1309H217.873V50.9121H221.536V50.7725C221.536 50.5186 221.489 50.2922 221.396 50.0933C221.307 49.8901 221.172 49.7293 220.99 49.6108C220.808 49.4924 220.575 49.4331 220.292 49.4331C220.05 49.4331 219.843 49.486 219.669 49.5918C219.496 49.6976 219.354 49.8457 219.244 50.0361C219.138 50.2266 219.058 50.4508 219.003 50.709C218.952 50.9629 218.927 51.2422 218.927 51.5469V51.8008C218.927 52.0758 218.965 52.3298 219.041 52.5625C219.121 52.7952 219.234 52.9963 219.377 53.1655C219.526 53.3348 219.703 53.466 219.911 53.5591C220.122 53.6522 220.361 53.6987 220.628 53.6987C220.958 53.6987 221.265 53.6353 221.548 53.5083C221.836 53.3771 222.084 53.1803 222.291 52.918L223.18 53.8828C223.036 54.0902 222.839 54.2891 222.589 54.4795C222.344 54.6699 222.048 54.8265 221.701 54.9492C221.354 55.0677 220.958 55.127 220.514 55.127ZM231.514 45.7578V55H229.616V45.7578H231.514ZM234.358 45.7578V47.2495H226.817V45.7578H234.358ZM238.071 53.4512V50.3916C238.071 50.1715 238.035 49.9832 237.963 49.8267C237.891 49.6659 237.779 49.541 237.627 49.4521C237.479 49.3633 237.286 49.3188 237.049 49.3188C236.846 49.3188 236.671 49.3548 236.522 49.4268C236.374 49.4945 236.26 49.5939 236.18 49.7251C236.099 49.8521 236.059 50.0023 236.059 50.1758H234.231C234.231 49.8838 234.299 49.6066 234.434 49.3442C234.569 49.0819 234.766 48.8512 235.024 48.6523C235.283 48.4492 235.589 48.2905 235.945 48.1763C236.305 48.062 236.707 48.0049 237.151 48.0049C237.684 48.0049 238.158 48.0938 238.573 48.2715C238.987 48.4492 239.313 48.7158 239.55 49.0713C239.792 49.4268 239.912 49.8711 239.912 50.4043V53.3433C239.912 53.7199 239.935 54.0288 239.982 54.27C240.028 54.507 240.096 54.7144 240.185 54.8921V55H238.338C238.249 54.8138 238.181 54.5811 238.135 54.3018C238.092 54.0182 238.071 53.7347 238.071 53.4512ZM238.312 50.8169L238.325 51.8516H237.303C237.062 51.8516 236.853 51.8791 236.675 51.9341C236.497 51.9891 236.351 52.0674 236.237 52.1689C236.123 52.2663 236.038 52.3805 235.983 52.5117C235.932 52.6429 235.907 52.7868 235.907 52.9434C235.907 53.0999 235.943 53.2417 236.015 53.3687C236.087 53.4914 236.19 53.5887 236.326 53.6606C236.461 53.7284 236.62 53.7622 236.802 53.7622C237.077 53.7622 237.316 53.7072 237.519 53.5972C237.722 53.4871 237.879 53.3517 237.989 53.1909C238.103 53.0301 238.162 52.8778 238.167 52.7339L238.649 53.5083C238.581 53.6818 238.488 53.8617 238.37 54.0479C238.255 54.234 238.109 54.4097 237.932 54.5747C237.754 54.7355 237.54 54.8688 237.291 54.9746C237.041 55.0762 236.745 55.127 236.402 55.127C235.966 55.127 235.57 55.0402 235.215 54.8667C234.864 54.689 234.584 54.4456 234.377 54.1367C234.174 53.8236 234.072 53.4681 234.072 53.0703C234.072 52.7106 234.14 52.3911 234.275 52.1118C234.411 51.8325 234.61 51.5977 234.872 51.4072C235.139 51.2126 235.471 51.0666 235.869 50.9692C236.266 50.8677 236.728 50.8169 237.252 50.8169H238.312ZM243.149 49.6299V55H241.321V48.1318H243.042L243.149 49.6299ZM245.219 48.0874L245.187 49.7822C245.098 49.7695 244.99 49.759 244.863 49.7505C244.741 49.7378 244.628 49.7314 244.527 49.7314C244.269 49.7314 244.044 49.7653 243.854 49.833C243.668 49.8965 243.511 49.9917 243.384 50.1187C243.262 50.2456 243.168 50.4001 243.105 50.582C243.046 50.764 243.012 50.9714 243.003 51.2041L242.635 51.0898C242.635 50.6455 242.68 50.2371 242.769 49.8647C242.857 49.4881 242.986 49.1602 243.156 48.8809C243.329 48.6016 243.541 48.3857 243.791 48.2334C244.04 48.0811 244.326 48.0049 244.647 48.0049C244.749 48.0049 244.853 48.0133 244.958 48.0303C245.064 48.043 245.151 48.062 245.219 48.0874ZM249.116 55.127C248.583 55.127 248.105 55.0423 247.682 54.873C247.258 54.6995 246.899 54.4604 246.603 54.1558C246.311 53.8511 246.086 53.4977 245.93 53.0957C245.773 52.6895 245.695 52.2578 245.695 51.8008V51.5469C245.695 51.0264 245.769 50.5503 245.917 50.1187C246.065 49.687 246.277 49.3125 246.552 48.9951C246.831 48.6777 247.17 48.4344 247.567 48.2651C247.965 48.0916 248.414 48.0049 248.913 48.0049C249.4 48.0049 249.831 48.0853 250.208 48.2461C250.585 48.4069 250.9 48.6354 251.154 48.9316C251.412 49.2279 251.607 49.5833 251.738 49.998C251.869 50.4085 251.935 50.8656 251.935 51.3691V52.1309H246.476V50.9121H250.138V50.7725C250.138 50.5186 250.092 50.2922 249.999 50.0933C249.91 49.8901 249.774 49.7293 249.592 49.6108C249.41 49.4924 249.178 49.4331 248.894 49.4331C248.653 49.4331 248.445 49.486 248.272 49.5918C248.098 49.6976 247.957 49.8457 247.847 50.0361C247.741 50.2266 247.66 50.4508 247.605 50.709C247.555 50.9629 247.529 51.2422 247.529 51.5469V51.8008C247.529 52.0758 247.567 52.3298 247.644 52.5625C247.724 52.7952 247.836 52.9963 247.98 53.1655C248.128 53.3348 248.306 53.466 248.513 53.5591C248.725 53.6522 248.964 53.6987 249.23 53.6987C249.561 53.6987 249.867 53.6353 250.151 53.5083C250.439 53.3771 250.686 53.1803 250.894 52.918L251.782 53.8828C251.638 54.0902 251.442 54.2891 251.192 54.4795C250.946 54.6699 250.65 54.8265 250.303 54.9492C249.956 55.0677 249.561 55.127 249.116 55.127ZM255.305 55H253.464V47.5225C253.464 47.002 253.566 46.564 253.769 46.2085C253.976 45.8488 254.266 45.578 254.639 45.396C255.015 45.2098 255.462 45.1167 255.978 45.1167C256.147 45.1167 256.31 45.1294 256.467 45.1548C256.623 45.1759 256.776 45.2035 256.924 45.2373L256.905 46.6147C256.824 46.5936 256.74 46.5788 256.651 46.5703C256.562 46.5618 256.458 46.5576 256.34 46.5576C256.12 46.5576 255.931 46.5957 255.775 46.6719C255.623 46.7438 255.506 46.8517 255.426 46.9956C255.345 47.1395 255.305 47.3151 255.305 47.5225V55ZM256.676 48.1318V49.4268H252.442V48.1318H256.676ZM261.342 53.4512V50.3916C261.342 50.1715 261.306 49.9832 261.234 49.8267C261.162 49.6659 261.05 49.541 260.897 49.4521C260.749 49.3633 260.557 49.3188 260.32 49.3188C260.117 49.3188 259.941 49.3548 259.793 49.4268C259.645 49.4945 259.531 49.5939 259.45 49.7251C259.37 49.8521 259.33 50.0023 259.33 50.1758H257.501C257.501 49.8838 257.569 49.6066 257.705 49.3442C257.84 49.0819 258.037 48.8512 258.295 48.6523C258.553 48.4492 258.86 48.2905 259.215 48.1763C259.575 48.062 259.977 48.0049 260.421 48.0049C260.955 48.0049 261.429 48.0938 261.843 48.2715C262.258 48.4492 262.584 48.7158 262.821 49.0713C263.062 49.4268 263.183 49.8711 263.183 50.4043V53.3433C263.183 53.7199 263.206 54.0288 263.252 54.27C263.299 54.507 263.367 54.7144 263.456 54.8921V55H261.608C261.52 54.8138 261.452 54.5811 261.405 54.3018C261.363 54.0182 261.342 53.7347 261.342 53.4512ZM261.583 50.8169L261.596 51.8516H260.574C260.333 51.8516 260.123 51.8791 259.945 51.9341C259.768 51.9891 259.622 52.0674 259.507 52.1689C259.393 52.2663 259.308 52.3805 259.253 52.5117C259.203 52.6429 259.177 52.7868 259.177 52.9434C259.177 53.0999 259.213 53.2417 259.285 53.3687C259.357 53.4914 259.461 53.5887 259.596 53.6606C259.732 53.7284 259.89 53.7622 260.072 53.7622C260.347 53.7622 260.586 53.7072 260.79 53.5972C260.993 53.4871 261.149 53.3517 261.259 53.1909C261.374 53.0301 261.433 52.8778 261.437 52.7339L261.919 53.5083C261.852 53.6818 261.759 53.8617 261.64 54.0479C261.526 54.234 261.38 54.4097 261.202 54.5747C261.024 54.7355 260.811 54.8688 260.561 54.9746C260.311 55.0762 260.015 55.127 259.672 55.127C259.236 55.127 258.841 55.0402 258.485 54.8667C258.134 54.689 257.855 54.4456 257.647 54.1367C257.444 53.8236 257.343 53.4681 257.343 53.0703C257.343 52.7106 257.41 52.3911 257.546 52.1118C257.681 51.8325 257.88 51.5977 258.143 51.4072C258.409 51.2126 258.741 51.0666 259.139 50.9692C259.537 50.8677 259.998 50.8169 260.523 50.8169H261.583ZM268.305 53.1021C268.305 52.9709 268.267 52.8524 268.191 52.7466C268.115 52.6408 267.973 52.5435 267.766 52.4546C267.562 52.3615 267.268 52.2769 266.883 52.2007C266.536 52.1245 266.213 52.0293 265.912 51.915C265.616 51.7965 265.358 51.6548 265.138 51.4897C264.922 51.3247 264.753 51.13 264.63 50.9058C264.507 50.6772 264.446 50.417 264.446 50.125C264.446 49.8372 264.507 49.5664 264.63 49.3125C264.757 49.0586 264.937 48.8343 265.169 48.6396C265.406 48.4408 265.694 48.2863 266.033 48.1763C266.375 48.062 266.761 48.0049 267.188 48.0049C267.785 48.0049 268.297 48.1001 268.724 48.2905C269.156 48.481 269.486 48.7433 269.714 49.0776C269.947 49.4077 270.063 49.7843 270.063 50.2075H268.235C268.235 50.0298 268.197 49.8711 268.121 49.7314C268.049 49.5876 267.935 49.4754 267.778 49.395C267.626 49.3104 267.427 49.2681 267.182 49.2681C266.979 49.2681 266.803 49.304 266.655 49.376C266.507 49.4437 266.392 49.5368 266.312 49.6553C266.236 49.7695 266.198 49.8965 266.198 50.0361C266.198 50.1419 266.219 50.2371 266.261 50.3218C266.308 50.4022 266.382 50.4762 266.483 50.5439C266.585 50.6117 266.716 50.6751 266.877 50.7344C267.042 50.7894 267.245 50.8402 267.486 50.8867C267.981 50.9883 268.424 51.1216 268.813 51.2866C269.202 51.4474 269.511 51.6675 269.74 51.9468C269.968 52.2218 270.083 52.5837 270.083 53.0322C270.083 53.3369 270.015 53.6162 269.879 53.8701C269.744 54.124 269.549 54.3462 269.295 54.5366C269.042 54.7228 268.737 54.8688 268.381 54.9746C268.03 55.0762 267.634 55.127 267.194 55.127C266.555 55.127 266.014 55.0127 265.569 54.7842C265.129 54.5557 264.795 54.2658 264.566 53.9146C264.342 53.5591 264.23 53.1951 264.23 52.8228H265.963C265.971 53.0724 266.035 53.2734 266.153 53.4258C266.276 53.5781 266.431 53.6882 266.617 53.7559C266.807 53.8236 267.012 53.8574 267.232 53.8574C267.469 53.8574 267.666 53.8257 267.823 53.7622C267.979 53.6945 268.098 53.6056 268.178 53.4956C268.263 53.3813 268.305 53.2502 268.305 53.1021Z" fill="white"/>
<circle cx="347" cy="52" r="10" stroke="#3B82F6" stroke-width="2"/>
<line x1="347" y1="59" x2="347" y2="45" stroke="#3B82F6" stroke-width="2"/>
<line x1="354" y1="52" x2="340" y2="52" stroke="#3B82F6" stroke-width="2"/>
<rect x="215" y="138" width="135" height="14" rx="7" fill="white" stroke="#2563EB" stroke-width="2"/>
<path d="M223.492 146.212H221.593V145.445H223.492C223.86 145.445 224.158 145.387 224.386 145.27C224.614 145.152 224.78 144.99 224.884 144.781C224.991 144.573 225.045 144.335 225.045 144.068C225.045 143.824 224.991 143.595 224.884 143.38C224.78 143.165 224.614 142.993 224.386 142.862C224.158 142.729 223.86 142.662 223.492 142.662H221.812V149H220.87V141.891H223.492C224.029 141.891 224.483 141.983 224.854 142.169C225.226 142.354 225.507 142.612 225.699 142.94C225.891 143.266 225.987 143.639 225.987 144.059C225.987 144.514 225.891 144.903 225.699 145.226C225.507 145.548 225.226 145.794 224.854 145.963C224.483 146.129 224.029 146.212 223.492 146.212ZM227.945 144.547V149H227.042V143.717H227.921L227.945 144.547ZM229.596 143.688L229.591 144.527C229.516 144.511 229.444 144.501 229.376 144.498C229.311 144.492 229.236 144.488 229.151 144.488C228.943 144.488 228.759 144.521 228.6 144.586C228.44 144.651 228.305 144.742 228.194 144.859C228.084 144.977 227.996 145.117 227.931 145.279C227.869 145.439 227.828 145.615 227.809 145.807L227.555 145.953C227.555 145.634 227.586 145.335 227.647 145.055C227.713 144.775 227.812 144.527 227.945 144.312C228.079 144.094 228.248 143.925 228.453 143.805C228.661 143.681 228.909 143.619 229.195 143.619C229.26 143.619 229.335 143.627 229.42 143.644C229.505 143.657 229.563 143.671 229.596 143.688ZM231.412 143.717V149H230.504V143.717H231.412ZM230.436 142.315C230.436 142.169 230.479 142.045 230.567 141.944C230.659 141.843 230.792 141.793 230.968 141.793C231.14 141.793 231.272 141.843 231.363 141.944C231.458 142.045 231.505 142.169 231.505 142.315C231.505 142.455 231.458 142.576 231.363 142.677C231.272 142.774 231.14 142.823 230.968 142.823C230.792 142.823 230.659 142.774 230.567 142.677C230.479 142.576 230.436 142.455 230.436 142.315ZM233.761 144.767V149H232.853V143.717H233.712L233.761 144.767ZM233.575 146.158L233.155 146.144C233.159 145.782 233.206 145.449 233.297 145.143C233.388 144.833 233.523 144.565 233.702 144.337C233.881 144.109 234.104 143.933 234.371 143.81C234.638 143.683 234.947 143.619 235.299 143.619C235.546 143.619 235.774 143.655 235.982 143.727C236.191 143.795 236.371 143.904 236.524 144.054C236.677 144.203 236.796 144.396 236.881 144.63C236.965 144.864 237.008 145.147 237.008 145.479V149H236.104V145.523C236.104 145.247 236.057 145.025 235.963 144.859C235.872 144.693 235.742 144.573 235.572 144.498C235.403 144.42 235.204 144.381 234.977 144.381C234.71 144.381 234.487 144.428 234.308 144.522C234.129 144.617 233.985 144.747 233.878 144.913C233.771 145.079 233.692 145.27 233.644 145.484C233.598 145.696 233.575 145.921 233.575 146.158ZM236.998 145.66L236.393 145.846C236.396 145.556 236.443 145.278 236.534 145.011C236.629 144.744 236.764 144.506 236.939 144.298C237.118 144.09 237.338 143.925 237.599 143.805C237.859 143.681 238.157 143.619 238.492 143.619C238.775 143.619 239.026 143.657 239.244 143.731C239.465 143.806 239.651 143.922 239.801 144.078C239.954 144.231 240.069 144.428 240.147 144.669C240.226 144.91 240.265 145.196 240.265 145.528V149H239.356V145.519C239.356 145.222 239.309 144.993 239.215 144.83C239.124 144.664 238.993 144.549 238.824 144.483C238.658 144.415 238.46 144.381 238.229 144.381C238.03 144.381 237.854 144.415 237.701 144.483C237.548 144.552 237.42 144.646 237.315 144.767C237.211 144.884 237.132 145.019 237.076 145.172C237.024 145.325 236.998 145.488 236.998 145.66ZM243.824 149.098C243.456 149.098 243.123 149.036 242.823 148.912C242.527 148.785 242.271 148.608 242.057 148.38C241.845 148.152 241.682 147.882 241.568 147.569C241.454 147.257 241.397 146.915 241.397 146.544V146.339C241.397 145.909 241.461 145.527 241.588 145.191C241.715 144.853 241.887 144.566 242.105 144.332C242.324 144.098 242.571 143.92 242.848 143.8C243.124 143.679 243.411 143.619 243.707 143.619C244.085 143.619 244.41 143.684 244.684 143.814C244.96 143.945 245.187 144.127 245.362 144.361C245.538 144.592 245.668 144.866 245.753 145.182C245.838 145.494 245.88 145.836 245.88 146.207V146.612H241.935V145.875H244.977V145.807C244.964 145.572 244.915 145.344 244.83 145.123C244.749 144.902 244.618 144.719 244.439 144.576C244.26 144.433 244.016 144.361 243.707 144.361C243.502 144.361 243.313 144.405 243.141 144.493C242.968 144.578 242.82 144.705 242.696 144.874C242.573 145.043 242.477 145.25 242.408 145.494C242.34 145.738 242.306 146.02 242.306 146.339V146.544C242.306 146.795 242.34 147.031 242.408 147.252C242.48 147.47 242.582 147.662 242.716 147.828C242.853 147.994 243.017 148.124 243.209 148.219C243.404 148.313 243.626 148.36 243.873 148.36C244.192 148.36 244.462 148.295 244.684 148.165C244.905 148.035 245.099 147.861 245.265 147.643L245.812 148.077C245.698 148.25 245.553 148.414 245.377 148.57C245.201 148.727 244.985 148.854 244.728 148.951C244.474 149.049 244.173 149.098 243.824 149.098ZM247.916 143.717V149H247.008V143.717H247.916ZM246.939 142.315C246.939 142.169 246.983 142.045 247.071 141.944C247.162 141.843 247.296 141.793 247.472 141.793C247.644 141.793 247.776 141.843 247.867 141.944C247.962 142.045 248.009 142.169 248.009 142.315C248.009 142.455 247.962 142.576 247.867 142.677C247.776 142.774 247.644 142.823 247.472 142.823C247.296 142.823 247.162 142.774 247.071 142.677C246.983 142.576 246.939 142.455 246.939 142.315ZM250.27 144.547V149H249.366V143.717H250.245L250.27 144.547ZM251.92 143.688L251.915 144.527C251.84 144.511 251.769 144.501 251.7 144.498C251.635 144.492 251.56 144.488 251.476 144.488C251.267 144.488 251.083 144.521 250.924 144.586C250.764 144.651 250.629 144.742 250.519 144.859C250.408 144.977 250.32 145.117 250.255 145.279C250.193 145.439 250.152 145.615 250.133 145.807L249.879 145.953C249.879 145.634 249.91 145.335 249.972 145.055C250.037 144.775 250.136 144.527 250.27 144.312C250.403 144.094 250.572 143.925 250.777 143.805C250.986 143.681 251.233 143.619 251.52 143.619C251.585 143.619 251.66 143.627 251.744 143.644C251.829 143.657 251.887 143.671 251.92 143.688ZM255.675 148.097V145.377C255.675 145.169 255.632 144.988 255.548 144.835C255.466 144.679 255.343 144.558 255.177 144.474C255.011 144.389 254.806 144.347 254.562 144.347C254.334 144.347 254.133 144.386 253.961 144.464C253.792 144.542 253.658 144.645 253.561 144.771C253.466 144.898 253.419 145.035 253.419 145.182H252.516C252.516 144.993 252.564 144.806 252.662 144.62C252.76 144.435 252.9 144.267 253.082 144.117C253.268 143.964 253.489 143.844 253.746 143.756C254.007 143.665 254.296 143.619 254.615 143.619C254.999 143.619 255.338 143.684 255.631 143.814C255.927 143.945 256.158 144.142 256.324 144.405C256.493 144.666 256.578 144.993 256.578 145.387V147.848C256.578 148.023 256.593 148.211 256.622 148.409C256.655 148.608 256.702 148.779 256.764 148.922V149H255.821C255.776 148.896 255.74 148.757 255.714 148.585C255.688 148.409 255.675 148.246 255.675 148.097ZM255.831 145.797L255.841 146.432H254.928C254.671 146.432 254.441 146.453 254.239 146.495C254.037 146.534 253.868 146.594 253.731 146.676C253.595 146.757 253.491 146.86 253.419 146.983C253.347 147.104 253.312 147.245 253.312 147.408C253.312 147.574 253.349 147.726 253.424 147.862C253.499 147.999 253.611 148.108 253.761 148.189C253.914 148.268 254.101 148.307 254.322 148.307C254.599 148.307 254.843 148.248 255.055 148.131C255.266 148.014 255.434 147.87 255.558 147.701C255.685 147.532 255.753 147.368 255.763 147.208L256.148 147.643C256.126 147.779 256.064 147.931 255.963 148.097C255.862 148.263 255.727 148.422 255.558 148.575C255.392 148.725 255.193 148.85 254.962 148.951C254.734 149.049 254.477 149.098 254.19 149.098C253.832 149.098 253.518 149.028 253.248 148.888C252.981 148.748 252.773 148.561 252.623 148.326C252.477 148.089 252.403 147.823 252.403 147.53C252.403 147.247 252.459 146.998 252.569 146.783C252.68 146.565 252.84 146.384 253.048 146.241C253.256 146.095 253.507 145.984 253.8 145.909C254.093 145.834 254.42 145.797 254.781 145.797H255.831ZM263.048 141.891V149H262.12V141.891H263.048ZM265.333 141.891V142.662H259.84V141.891H265.333ZM268.81 148.097V145.377C268.81 145.169 268.767 144.988 268.683 144.835C268.601 144.679 268.478 144.558 268.312 144.474C268.146 144.389 267.94 144.347 267.696 144.347C267.468 144.347 267.268 144.386 267.096 144.464C266.926 144.542 266.793 144.645 266.695 144.771C266.601 144.898 266.554 145.035 266.554 145.182H265.65C265.65 144.993 265.699 144.806 265.797 144.62C265.895 144.435 266.035 144.267 266.217 144.117C266.402 143.964 266.624 143.844 266.881 143.756C267.141 143.665 267.431 143.619 267.75 143.619C268.134 143.619 268.473 143.684 268.766 143.814C269.062 143.945 269.293 144.142 269.459 144.405C269.628 144.666 269.713 144.993 269.713 145.387V147.848C269.713 148.023 269.728 148.211 269.757 148.409C269.789 148.608 269.837 148.779 269.898 148.922V149H268.956C268.91 148.896 268.875 148.757 268.849 148.585C268.823 148.409 268.81 148.246 268.81 148.097ZM268.966 145.797L268.976 146.432H268.062C267.805 146.432 267.576 146.453 267.374 146.495C267.172 146.534 267.003 146.594 266.866 146.676C266.729 146.757 266.625 146.86 266.554 146.983C266.482 147.104 266.446 147.245 266.446 147.408C266.446 147.574 266.484 147.726 266.559 147.862C266.633 147.999 266.746 148.108 266.896 148.189C267.049 148.268 267.236 148.307 267.457 148.307C267.734 148.307 267.978 148.248 268.189 148.131C268.401 148.014 268.569 147.87 268.692 147.701C268.819 147.532 268.888 147.368 268.897 147.208L269.283 147.643C269.26 147.779 269.199 147.931 269.098 148.097C268.997 148.263 268.862 148.422 268.692 148.575C268.526 148.725 268.328 148.85 268.097 148.951C267.869 149.049 267.612 149.098 267.325 149.098C266.967 149.098 266.653 149.028 266.383 148.888C266.116 148.748 265.908 148.561 265.758 148.326C265.611 148.089 265.538 147.823 265.538 147.53C265.538 147.247 265.593 146.998 265.704 146.783C265.815 146.565 265.974 146.384 266.183 146.241C266.391 146.095 266.642 145.984 266.935 145.909C267.228 145.834 267.555 145.797 267.916 145.797H268.966ZM272.037 144.547V149H271.134V143.717H272.013L272.037 144.547ZM273.688 143.688L273.683 144.527C273.608 144.511 273.536 144.501 273.468 144.498C273.403 144.492 273.328 144.488 273.243 144.488C273.035 144.488 272.851 144.521 272.691 144.586C272.532 144.651 272.397 144.742 272.286 144.859C272.175 144.977 272.088 145.117 272.022 145.279C271.961 145.439 271.92 145.615 271.9 145.807L271.646 145.953C271.646 145.634 271.677 145.335 271.739 145.055C271.804 144.775 271.904 144.527 272.037 144.312C272.171 144.094 272.34 143.925 272.545 143.805C272.753 143.681 273.001 143.619 273.287 143.619C273.352 143.619 273.427 143.627 273.512 143.644C273.596 143.657 273.655 143.671 273.688 143.688ZM276.617 149.098C276.249 149.098 275.916 149.036 275.616 148.912C275.32 148.785 275.064 148.608 274.85 148.38C274.638 148.152 274.475 147.882 274.361 147.569C274.247 147.257 274.19 146.915 274.19 146.544V146.339C274.19 145.909 274.254 145.527 274.381 145.191C274.508 144.853 274.68 144.566 274.898 144.332C275.117 144.098 275.364 143.92 275.641 143.8C275.917 143.679 276.204 143.619 276.5 143.619C276.878 143.619 277.203 143.684 277.477 143.814C277.753 143.945 277.979 144.127 278.155 144.361C278.331 144.592 278.461 144.866 278.546 145.182C278.631 145.494 278.673 145.836 278.673 146.207V146.612H274.728V145.875H277.77V145.807C277.757 145.572 277.708 145.344 277.623 145.123C277.542 144.902 277.411 144.719 277.232 144.576C277.053 144.433 276.809 144.361 276.5 144.361C276.295 144.361 276.106 144.405 275.934 144.493C275.761 144.578 275.613 144.705 275.489 144.874C275.366 145.043 275.27 145.25 275.201 145.494C275.133 145.738 275.099 146.02 275.099 146.339V146.544C275.099 146.795 275.133 147.031 275.201 147.252C275.273 147.47 275.375 147.662 275.509 147.828C275.646 147.994 275.81 148.124 276.002 148.219C276.197 148.313 276.419 148.36 276.666 148.36C276.985 148.36 277.255 148.295 277.477 148.165C277.698 148.035 277.892 147.861 278.058 147.643L278.604 148.077C278.491 148.25 278.346 148.414 278.17 148.57C277.994 148.727 277.778 148.854 277.521 148.951C277.267 149.049 276.965 149.098 276.617 149.098ZM281.075 149H280.172V143.16C280.172 142.779 280.24 142.459 280.377 142.198C280.517 141.935 280.717 141.736 280.978 141.603C281.238 141.466 281.547 141.397 281.905 141.397C282.009 141.397 282.114 141.404 282.218 141.417C282.325 141.43 282.429 141.45 282.53 141.476L282.481 142.213C282.413 142.197 282.335 142.185 282.247 142.179C282.162 142.172 282.078 142.169 281.993 142.169C281.801 142.169 281.635 142.208 281.495 142.286C281.358 142.361 281.254 142.472 281.183 142.618C281.111 142.765 281.075 142.945 281.075 143.16V149ZM282.198 143.717V144.41H279.337V143.717H282.198ZM286.319 148.097V145.377C286.319 145.169 286.277 144.988 286.192 144.835C286.111 144.679 285.987 144.558 285.821 144.474C285.655 144.389 285.45 144.347 285.206 144.347C284.978 144.347 284.778 144.386 284.605 144.464C284.436 144.542 284.303 144.645 284.205 144.771C284.111 144.898 284.063 145.035 284.063 145.182H283.16C283.16 144.993 283.209 144.806 283.307 144.62C283.404 144.435 283.544 144.267 283.727 144.117C283.912 143.964 284.133 143.844 284.391 143.756C284.651 143.665 284.941 143.619 285.26 143.619C285.644 143.619 285.982 143.684 286.275 143.814C286.572 143.945 286.803 144.142 286.969 144.405C287.138 144.666 287.223 144.993 287.223 145.387V147.848C287.223 148.023 287.237 148.211 287.267 148.409C287.299 148.608 287.346 148.779 287.408 148.922V149H286.466C286.42 148.896 286.384 148.757 286.358 148.585C286.332 148.409 286.319 148.246 286.319 148.097ZM286.476 145.797L286.485 146.432H285.572C285.315 146.432 285.086 146.453 284.884 146.495C284.682 146.534 284.513 146.594 284.376 146.676C284.239 146.757 284.135 146.86 284.063 146.983C283.992 147.104 283.956 147.245 283.956 147.408C283.956 147.574 283.993 147.726 284.068 147.862C284.143 147.999 284.256 148.108 284.405 148.189C284.558 148.268 284.745 148.307 284.967 148.307C285.243 148.307 285.488 148.248 285.699 148.131C285.911 148.014 286.078 147.87 286.202 147.701C286.329 147.532 286.397 147.368 286.407 147.208L286.793 147.643C286.77 147.779 286.708 147.931 286.607 148.097C286.507 148.263 286.371 148.422 286.202 148.575C286.036 148.725 285.838 148.85 285.606 148.951C285.379 149.049 285.121 149.098 284.835 149.098C284.477 149.098 284.163 149.028 283.893 148.888C283.626 148.748 283.417 148.561 283.268 148.326C283.121 148.089 283.048 147.823 283.048 147.53C283.048 147.247 283.103 146.998 283.214 146.783C283.325 146.565 283.484 146.384 283.692 146.241C283.901 146.095 284.151 145.984 284.444 145.909C284.737 145.834 285.064 145.797 285.426 145.797H286.476Z" fill="#9CACCB"/>
<rect x="53" y="138" width="135" height="14" rx="7" fill="white" stroke="#2563EB" stroke-width="2"/>
<path d="M66.4648 141.891V149H65.5176L61.9385 143.517V149H60.9961V141.891H61.9385L65.5322 147.389V141.891H66.4648ZM67.7588 146.417V146.305C67.7588 145.924 67.8141 145.571 67.9248 145.245C68.0355 144.916 68.195 144.632 68.4033 144.391C68.6117 144.146 68.8639 143.958 69.1602 143.824C69.4564 143.688 69.7884 143.619 70.1562 143.619C70.5273 143.619 70.861 143.688 71.1572 143.824C71.4567 143.958 71.7106 144.146 71.9189 144.391C72.1305 144.632 72.2917 144.916 72.4023 145.245C72.513 145.571 72.5684 145.924 72.5684 146.305V146.417C72.5684 146.798 72.513 147.151 72.4023 147.477C72.2917 147.802 72.1305 148.087 71.9189 148.331C71.7106 148.572 71.4583 148.761 71.1621 148.897C70.8691 149.031 70.5371 149.098 70.166 149.098C69.7949 149.098 69.4613 149.031 69.165 148.897C68.8688 148.761 68.6149 148.572 68.4033 148.331C68.195 148.087 68.0355 147.802 67.9248 147.477C67.8141 147.151 67.7588 146.798 67.7588 146.417ZM68.6621 146.305V146.417C68.6621 146.681 68.693 146.93 68.7549 147.164C68.8167 147.395 68.9095 147.6 69.0332 147.779C69.1602 147.958 69.318 148.1 69.5068 148.204C69.6956 148.305 69.9154 148.355 70.166 148.355C70.4134 148.355 70.6299 148.305 70.8154 148.204C71.0042 148.1 71.1605 147.958 71.2842 147.779C71.4079 147.6 71.5007 147.395 71.5625 147.164C71.6276 146.93 71.6602 146.681 71.6602 146.417V146.305C71.6602 146.044 71.6276 145.799 71.5625 145.567C71.5007 145.333 71.4062 145.126 71.2793 144.947C71.1556 144.765 70.9993 144.622 70.8105 144.518C70.625 144.413 70.4069 144.361 70.1562 144.361C69.9089 144.361 69.6908 144.413 69.502 144.518C69.3164 144.622 69.1602 144.765 69.0332 144.947C68.9095 145.126 68.8167 145.333 68.7549 145.567C68.693 145.799 68.6621 146.044 68.6621 146.305ZM74.5996 144.767V149H73.6914V143.717H74.5508L74.5996 144.767ZM74.4141 146.158L73.9941 146.144C73.9974 145.782 74.0446 145.449 74.1357 145.143C74.2269 144.833 74.362 144.565 74.541 144.337C74.7201 144.109 74.943 143.933 75.21 143.81C75.4769 143.683 75.7861 143.619 76.1377 143.619C76.3851 143.619 76.613 143.655 76.8213 143.727C77.0296 143.795 77.2103 143.904 77.3633 144.054C77.5163 144.203 77.6351 144.396 77.7197 144.63C77.8044 144.864 77.8467 145.147 77.8467 145.479V149H76.9434V145.523C76.9434 145.247 76.8962 145.025 76.8018 144.859C76.7106 144.693 76.5804 144.573 76.4111 144.498C76.2419 144.42 76.0433 144.381 75.8154 144.381C75.5485 144.381 75.3255 144.428 75.1465 144.522C74.9674 144.617 74.8242 144.747 74.7168 144.913C74.6094 145.079 74.5312 145.27 74.4824 145.484C74.4368 145.696 74.4141 145.921 74.4141 146.158ZM77.8369 145.66L77.2314 145.846C77.2347 145.556 77.2819 145.278 77.373 145.011C77.4674 144.744 77.6025 144.506 77.7783 144.298C77.9574 144.09 78.1771 143.925 78.4375 143.805C78.6979 143.681 78.9958 143.619 79.3311 143.619C79.6143 143.619 79.8649 143.657 80.083 143.731C80.3044 143.806 80.4899 143.922 80.6396 144.078C80.7926 144.231 80.9082 144.428 80.9863 144.669C81.0645 144.91 81.1035 145.196 81.1035 145.528V149H80.1953V145.519C80.1953 145.222 80.1481 144.993 80.0537 144.83C79.9626 144.664 79.8324 144.549 79.6631 144.483C79.4971 144.415 79.2985 144.381 79.0674 144.381C78.8688 144.381 78.693 144.415 78.54 144.483C78.387 144.552 78.2585 144.646 78.1543 144.767C78.0501 144.884 77.9704 145.019 77.915 145.172C77.863 145.325 77.8369 145.488 77.8369 145.66ZM84.6631 149.098C84.2952 149.098 83.9616 149.036 83.6621 148.912C83.3659 148.785 83.1104 148.608 82.8955 148.38C82.6839 148.152 82.5212 147.882 82.4072 147.569C82.2933 147.257 82.2363 146.915 82.2363 146.544V146.339C82.2363 145.909 82.2998 145.527 82.4268 145.191C82.5537 144.853 82.7262 144.566 82.9443 144.332C83.1624 144.098 83.4098 143.92 83.6865 143.8C83.9632 143.679 84.2497 143.619 84.5459 143.619C84.9235 143.619 85.249 143.684 85.5225 143.814C85.7992 143.945 86.0254 144.127 86.2012 144.361C86.377 144.592 86.5072 144.866 86.5918 145.182C86.6764 145.494 86.7188 145.836 86.7188 146.207V146.612H82.7734V145.875H85.8154V145.807C85.8024 145.572 85.7536 145.344 85.6689 145.123C85.5876 144.902 85.4574 144.719 85.2783 144.576C85.0993 144.433 84.8551 144.361 84.5459 144.361C84.3408 144.361 84.152 144.405 83.9795 144.493C83.807 144.578 83.6589 144.705 83.5352 144.874C83.4115 145.043 83.3154 145.25 83.2471 145.494C83.1787 145.738 83.1445 146.02 83.1445 146.339V146.544C83.1445 146.795 83.1787 147.031 83.2471 147.252C83.3187 147.47 83.4212 147.662 83.5547 147.828C83.6914 147.994 83.8558 148.124 84.0479 148.219C84.2432 148.313 84.4645 148.36 84.7119 148.36C85.0309 148.36 85.3011 148.295 85.5225 148.165C85.7438 148.035 85.9375 147.861 86.1035 147.643L86.6504 148.077C86.5365 148.25 86.3916 148.414 86.2158 148.57C86.04 148.727 85.8236 148.854 85.5664 148.951C85.3125 149.049 85.0114 149.098 84.6631 149.098ZM93.584 147.975V141.5H94.4922V149H93.6621L93.584 147.975ZM90.0293 146.417V146.314C90.0293 145.911 90.0781 145.545 90.1758 145.216C90.2767 144.884 90.4183 144.599 90.6006 144.361C90.7861 144.124 91.0059 143.941 91.2598 143.814C91.5169 143.684 91.8034 143.619 92.1191 143.619C92.4512 143.619 92.7409 143.678 92.9883 143.795C93.2389 143.909 93.4505 144.076 93.623 144.298C93.7988 144.516 93.9372 144.78 94.0381 145.089C94.139 145.398 94.209 145.748 94.248 146.139V146.588C94.2122 146.975 94.1423 147.324 94.0381 147.633C93.9372 147.942 93.7988 148.206 93.623 148.424C93.4505 148.642 93.2389 148.81 92.9883 148.927C92.7376 149.041 92.4447 149.098 92.1094 149.098C91.8001 149.098 91.5169 149.031 91.2598 148.897C91.0059 148.764 90.7861 148.577 90.6006 148.336C90.4183 148.095 90.2767 147.812 90.1758 147.486C90.0781 147.158 90.0293 146.801 90.0293 146.417ZM90.9375 146.314V146.417C90.9375 146.681 90.9635 146.928 91.0156 147.159C91.071 147.39 91.1556 147.594 91.2695 147.77C91.3835 147.945 91.5283 148.084 91.7041 148.185C91.8799 148.282 92.0898 148.331 92.334 148.331C92.6335 148.331 92.8792 148.268 93.0713 148.141C93.2666 148.014 93.4229 147.846 93.54 147.638C93.6572 147.429 93.7484 147.203 93.8135 146.959V145.782C93.7744 145.603 93.7174 145.431 93.6426 145.265C93.571 145.095 93.4766 144.946 93.3594 144.815C93.2454 144.682 93.1038 144.576 92.9346 144.498C92.7686 144.42 92.5716 144.381 92.3438 144.381C92.0964 144.381 91.8831 144.433 91.7041 144.537C91.5283 144.638 91.3835 144.778 91.2695 144.957C91.1556 145.133 91.071 145.338 91.0156 145.572C90.9635 145.803 90.9375 146.051 90.9375 146.314ZM99.0137 148.097V145.377C99.0137 145.169 98.9714 144.988 98.8867 144.835C98.8053 144.679 98.6816 144.558 98.5156 144.474C98.3496 144.389 98.1445 144.347 97.9004 144.347C97.6725 144.347 97.4723 144.386 97.2998 144.464C97.1305 144.542 96.9971 144.645 96.8994 144.771C96.805 144.898 96.7578 145.035 96.7578 145.182H95.8545C95.8545 144.993 95.9033 144.806 96.001 144.62C96.0986 144.435 96.2386 144.267 96.4209 144.117C96.6064 143.964 96.8278 143.844 97.085 143.756C97.3454 143.665 97.6351 143.619 97.9541 143.619C98.3382 143.619 98.6768 143.684 98.9697 143.814C99.266 143.945 99.4971 144.142 99.6631 144.405C99.8324 144.666 99.917 144.993 99.917 145.387V147.848C99.917 148.023 99.9316 148.211 99.9609 148.409C99.9935 148.608 100.041 148.779 100.103 148.922V149H99.1602C99.1146 148.896 99.0788 148.757 99.0527 148.585C99.0267 148.409 99.0137 148.246 99.0137 148.097ZM99.1699 145.797L99.1797 146.432H98.2666C98.0094 146.432 97.7799 146.453 97.5781 146.495C97.3763 146.534 97.207 146.594 97.0703 146.676C96.9336 146.757 96.8294 146.86 96.7578 146.983C96.6862 147.104 96.6504 147.245 96.6504 147.408C96.6504 147.574 96.6878 147.726 96.7627 147.862C96.8376 147.999 96.9499 148.108 97.0996 148.189C97.2526 148.268 97.4398 148.307 97.6611 148.307C97.9378 148.307 98.182 148.248 98.3936 148.131C98.6051 148.014 98.7728 147.87 98.8965 147.701C99.0234 147.532 99.0918 147.368 99.1016 147.208L99.4873 147.643C99.4645 147.779 99.4027 147.931 99.3018 148.097C99.2008 148.263 99.0658 148.422 98.8965 148.575C98.7305 148.725 98.5319 148.85 98.3008 148.951C98.0729 149.049 97.8158 149.098 97.5293 149.098C97.1712 149.098 96.8571 149.028 96.5869 148.888C96.32 148.748 96.1117 148.561 95.9619 148.326C95.8154 148.089 95.7422 147.823 95.7422 147.53C95.7422 147.247 95.7975 146.998 95.9082 146.783C96.0189 146.565 96.1784 146.384 96.3867 146.241C96.5951 146.095 96.8457 145.984 97.1387 145.909C97.4316 145.834 97.7588 145.797 98.1201 145.797H99.1699ZM108.267 148.233V149H104.712V148.233H108.267ZM104.897 141.891V149H103.955V141.891H104.897ZM110.19 143.717V149H109.282V143.717H110.19ZM109.214 142.315C109.214 142.169 109.258 142.045 109.346 141.944C109.437 141.843 109.57 141.793 109.746 141.793C109.919 141.793 110.05 141.843 110.142 141.944C110.236 142.045 110.283 142.169 110.283 142.315C110.283 142.455 110.236 142.576 110.142 142.677C110.05 142.774 109.919 142.823 109.746 142.823C109.57 142.823 109.437 142.774 109.346 142.677C109.258 142.576 109.214 142.455 109.214 142.315ZM114.717 147.599C114.717 147.468 114.688 147.348 114.629 147.237C114.574 147.123 114.458 147.021 114.282 146.93C114.11 146.835 113.849 146.754 113.501 146.686C113.208 146.624 112.943 146.55 112.705 146.466C112.471 146.381 112.271 146.279 112.104 146.158C111.942 146.038 111.816 145.896 111.729 145.733C111.641 145.571 111.597 145.38 111.597 145.162C111.597 144.954 111.642 144.757 111.733 144.571C111.828 144.386 111.96 144.221 112.129 144.078C112.301 143.935 112.508 143.823 112.749 143.741C112.99 143.66 113.258 143.619 113.555 143.619C113.978 143.619 114.339 143.694 114.639 143.844C114.938 143.993 115.168 144.194 115.327 144.444C115.487 144.692 115.566 144.967 115.566 145.27H114.663C114.663 145.123 114.619 144.981 114.531 144.845C114.447 144.705 114.321 144.589 114.155 144.498C113.993 144.407 113.792 144.361 113.555 144.361C113.304 144.361 113.101 144.4 112.944 144.479C112.791 144.553 112.679 144.649 112.607 144.767C112.539 144.884 112.505 145.007 112.505 145.138C112.505 145.235 112.521 145.323 112.554 145.401C112.59 145.476 112.651 145.546 112.739 145.611C112.827 145.673 112.951 145.732 113.11 145.787C113.27 145.842 113.473 145.898 113.721 145.953C114.154 146.051 114.51 146.168 114.79 146.305C115.07 146.441 115.278 146.609 115.415 146.808C115.552 147.006 115.62 147.247 115.62 147.53C115.62 147.761 115.571 147.973 115.474 148.165C115.379 148.357 115.241 148.523 115.059 148.663C114.88 148.8 114.665 148.907 114.414 148.985C114.167 149.06 113.888 149.098 113.579 149.098C113.114 149.098 112.72 149.015 112.397 148.849C112.075 148.683 111.831 148.468 111.665 148.204C111.499 147.94 111.416 147.662 111.416 147.369H112.324C112.337 147.617 112.409 147.813 112.539 147.96C112.669 148.103 112.829 148.206 113.018 148.268C113.206 148.326 113.394 148.355 113.579 148.355C113.826 148.355 114.033 148.323 114.199 148.258C114.368 148.193 114.497 148.103 114.585 147.989C114.673 147.875 114.717 147.745 114.717 147.599ZM119.019 143.717V144.41H116.162V143.717H119.019ZM117.129 142.433H118.032V147.691C118.032 147.87 118.06 148.006 118.115 148.097C118.171 148.188 118.242 148.248 118.33 148.277C118.418 148.307 118.512 148.321 118.613 148.321C118.688 148.321 118.766 148.315 118.848 148.302C118.932 148.285 118.996 148.272 119.038 148.263L119.043 149C118.971 149.023 118.877 149.044 118.76 149.063C118.646 149.086 118.507 149.098 118.345 149.098C118.123 149.098 117.92 149.054 117.734 148.966C117.549 148.878 117.401 148.731 117.29 148.526C117.183 148.318 117.129 148.038 117.129 147.687V142.433ZM123.193 148.097V145.377C123.193 145.169 123.151 144.988 123.066 144.835C122.985 144.679 122.861 144.558 122.695 144.474C122.529 144.389 122.324 144.347 122.08 144.347C121.852 144.347 121.652 144.386 121.479 144.464C121.31 144.542 121.177 144.645 121.079 144.771C120.985 144.898 120.938 145.035 120.938 145.182H120.034C120.034 144.993 120.083 144.806 120.181 144.62C120.278 144.435 120.418 144.267 120.601 144.117C120.786 143.964 121.007 143.844 121.265 143.756C121.525 143.665 121.815 143.619 122.134 143.619C122.518 143.619 122.856 143.684 123.149 143.814C123.446 143.945 123.677 144.142 123.843 144.405C124.012 144.666 124.097 144.993 124.097 145.387V147.848C124.097 148.023 124.111 148.211 124.141 148.409C124.173 148.608 124.22 148.779 124.282 148.922V149H123.34C123.294 148.896 123.258 148.757 123.232 148.585C123.206 148.409 123.193 148.246 123.193 148.097ZM123.35 145.797L123.359 146.432H122.446C122.189 146.432 121.96 146.453 121.758 146.495C121.556 146.534 121.387 146.594 121.25 146.676C121.113 146.757 121.009 146.86 120.938 146.983C120.866 147.104 120.83 147.245 120.83 147.408C120.83 147.574 120.868 147.726 120.942 147.862C121.017 147.999 121.13 148.108 121.279 148.189C121.432 148.268 121.619 148.307 121.841 148.307C122.118 148.307 122.362 148.248 122.573 148.131C122.785 148.014 122.952 147.87 123.076 147.701C123.203 147.532 123.271 147.368 123.281 147.208L123.667 147.643C123.644 147.779 123.582 147.931 123.481 148.097C123.381 148.263 123.245 148.422 123.076 148.575C122.91 148.725 122.712 148.85 122.48 148.951C122.253 149.049 121.995 149.098 121.709 149.098C121.351 149.098 121.037 149.028 120.767 148.888C120.5 148.748 120.291 148.561 120.142 148.326C119.995 148.089 119.922 147.823 119.922 147.53C119.922 147.247 119.977 146.998 120.088 146.783C120.199 146.565 120.358 146.384 120.566 146.241C120.775 146.095 121.025 145.984 121.318 145.909C121.611 145.834 121.938 145.797 122.3 145.797H123.35Z" fill="#9CACCB"/>
</svg>
