<svg width="402" height="202" viewBox="0 0 402 202" fill="none" xmlns="http://www.w3.org/2000/svg">
<rect x="1" y="1" width="400" height="200" rx="8" fill="#0F172A" stroke="#7DD3FC"/>
<path d="M132.624 51.9341H134.522C134.484 52.5562 134.312 53.1084 134.008 53.5908C133.707 54.0732 133.286 54.4499 132.745 54.7207C132.207 54.9915 131.56 55.127 130.802 55.127C130.21 55.127 129.679 55.0254 129.209 54.8223C128.739 54.6149 128.337 54.3187 128.003 53.9336C127.673 53.5485 127.421 53.083 127.248 52.5371C127.074 51.9912 126.987 51.3797 126.987 50.7026V50.0615C126.987 49.3844 127.076 48.7729 127.254 48.2271C127.436 47.6769 127.694 47.2093 128.028 46.8242C128.367 46.4391 128.771 46.1429 129.241 45.9355C129.71 45.7282 130.235 45.6245 130.815 45.6245C131.585 45.6245 132.235 45.7642 132.764 46.0435C133.297 46.3228 133.709 46.7078 134.001 47.1987C134.298 47.6896 134.475 48.2482 134.535 48.8745H132.63C132.609 48.5021 132.535 48.1868 132.408 47.9287C132.281 47.6663 132.089 47.4696 131.831 47.3384C131.577 47.203 131.238 47.1353 130.815 47.1353C130.498 47.1353 130.22 47.1945 129.983 47.313C129.746 47.4315 129.548 47.6113 129.387 47.8525C129.226 48.0938 129.105 48.3984 129.025 48.7666C128.949 49.1305 128.911 49.5579 128.911 50.0488V50.7026C128.911 51.1808 128.947 51.6019 129.019 51.9658C129.09 52.3255 129.201 52.6302 129.349 52.8799C129.501 53.1253 129.696 53.3115 129.933 53.4385C130.174 53.5612 130.464 53.6226 130.802 53.6226C131.2 53.6226 131.528 53.5591 131.786 53.4321C132.044 53.3052 132.241 53.1169 132.376 52.8672C132.516 52.6175 132.599 52.3065 132.624 51.9341ZM137.486 49.6299V55H135.658V48.1318H137.378L137.486 49.6299ZM139.556 48.0874L139.524 49.7822C139.435 49.7695 139.327 49.759 139.2 49.7505C139.077 49.7378 138.965 49.7314 138.864 49.7314C138.606 49.7314 138.381 49.7653 138.191 49.833C138.005 49.8965 137.848 49.9917 137.721 50.1187C137.598 50.2456 137.505 50.4001 137.442 50.582C137.383 50.764 137.349 50.9714 137.34 51.2041L136.972 51.0898C136.972 50.6455 137.017 50.2371 137.105 49.8647C137.194 49.4881 137.323 49.1602 137.493 48.8809C137.666 48.6016 137.878 48.3857 138.127 48.2334C138.377 48.0811 138.663 48.0049 138.984 48.0049C139.086 48.0049 139.19 48.0133 139.295 48.0303C139.401 48.043 139.488 48.062 139.556 48.0874ZM142.349 48.1318V55H140.514V48.1318H142.349ZM140.4 46.3418C140.4 46.0752 140.493 45.8551 140.679 45.6816C140.865 45.5081 141.115 45.4214 141.428 45.4214C141.737 45.4214 141.985 45.5081 142.171 45.6816C142.361 45.8551 142.457 46.0752 142.457 46.3418C142.457 46.6084 142.361 46.8285 142.171 47.002C141.985 47.1755 141.737 47.2622 141.428 47.2622C141.115 47.2622 140.865 47.1755 140.679 47.002C140.493 46.8285 140.4 46.6084 140.4 46.3418ZM147.021 55.127C146.487 55.127 146.009 55.0423 145.586 54.873C145.163 54.6995 144.803 54.4604 144.507 54.1558C144.215 53.8511 143.991 53.4977 143.834 53.0957C143.677 52.6895 143.599 52.2578 143.599 51.8008V51.5469C143.599 51.0264 143.673 50.5503 143.821 50.1187C143.969 49.687 144.181 49.3125 144.456 48.9951C144.735 48.6777 145.074 48.4344 145.472 48.2651C145.869 48.0916 146.318 48.0049 146.817 48.0049C147.304 48.0049 147.736 48.0853 148.112 48.2461C148.489 48.4069 148.804 48.6354 149.058 48.9316C149.316 49.2279 149.511 49.5833 149.642 49.998C149.773 50.4085 149.839 50.8656 149.839 51.3691V52.1309H144.38V50.9121H148.042V50.7725C148.042 50.5186 147.996 50.2922 147.903 50.0933C147.814 49.8901 147.679 49.7293 147.497 49.6108C147.315 49.4924 147.082 49.4331 146.798 49.4331C146.557 49.4331 146.35 49.486 146.176 49.5918C146.003 49.6976 145.861 49.8457 145.751 50.0361C145.645 50.2266 145.565 50.4508 145.51 50.709C145.459 50.9629 145.434 51.2422 145.434 51.5469V51.8008C145.434 52.0758 145.472 52.3298 145.548 52.5625C145.628 52.7952 145.74 52.9963 145.884 53.1655C146.032 53.3348 146.21 53.466 146.417 53.5591C146.629 53.6522 146.868 53.6987 147.135 53.6987C147.465 53.6987 147.772 53.6353 148.055 53.5083C148.343 53.3771 148.59 53.1803 148.798 52.918L149.687 53.8828C149.543 54.0902 149.346 54.2891 149.096 54.4795C148.851 54.6699 148.555 54.8265 148.208 54.9492C147.861 55.0677 147.465 55.127 147.021 55.127ZM157.831 53.1021C157.831 52.9709 157.792 52.8524 157.716 52.7466C157.64 52.6408 157.498 52.5435 157.291 52.4546C157.088 52.3615 156.794 52.2769 156.409 52.2007C156.062 52.1245 155.738 52.0293 155.438 51.915C155.141 51.7965 154.883 51.6548 154.663 51.4897C154.447 51.3247 154.278 51.13 154.155 50.9058C154.033 50.6772 153.971 50.417 153.971 50.125C153.971 49.8372 154.033 49.5664 154.155 49.3125C154.282 49.0586 154.462 48.8343 154.695 48.6396C154.932 48.4408 155.22 48.2863 155.558 48.1763C155.901 48.062 156.286 48.0049 156.713 48.0049C157.31 48.0049 157.822 48.1001 158.25 48.2905C158.681 48.481 159.011 48.7433 159.24 49.0776C159.472 49.4077 159.589 49.7843 159.589 50.2075H157.761C157.761 50.0298 157.723 49.8711 157.646 49.7314C157.575 49.5876 157.46 49.4754 157.304 49.395C157.151 49.3104 156.952 49.2681 156.707 49.2681C156.504 49.2681 156.328 49.304 156.18 49.376C156.032 49.4437 155.918 49.5368 155.837 49.6553C155.761 49.7695 155.723 49.8965 155.723 50.0361C155.723 50.1419 155.744 50.2371 155.787 50.3218C155.833 50.4022 155.907 50.4762 156.009 50.5439C156.11 50.6117 156.242 50.6751 156.402 50.7344C156.567 50.7894 156.771 50.8402 157.012 50.8867C157.507 50.9883 157.949 51.1216 158.338 51.2866C158.728 51.4474 159.037 51.6675 159.265 51.9468C159.494 52.2218 159.608 52.5837 159.608 53.0322C159.608 53.3369 159.54 53.6162 159.405 53.8701C159.269 54.124 159.075 54.3462 158.821 54.5366C158.567 54.7228 158.262 54.8688 157.907 54.9746C157.556 55.0762 157.16 55.127 156.72 55.127C156.081 55.127 155.539 55.0127 155.095 54.7842C154.655 54.5557 154.32 54.2658 154.092 53.9146C153.868 53.5591 153.755 53.1951 153.755 52.8228H155.488C155.497 53.0724 155.56 53.2734 155.679 53.4258C155.801 53.5781 155.956 53.6882 156.142 53.7559C156.333 53.8236 156.538 53.8574 156.758 53.8574C156.995 53.8574 157.192 53.8257 157.348 53.7622C157.505 53.6945 157.623 53.6056 157.704 53.4956C157.788 53.3813 157.831 53.2502 157.831 53.1021ZM164.857 53.356V48.1318H166.686V55H164.965L164.857 53.356ZM165.061 51.9468L165.6 51.9341C165.6 52.3911 165.547 52.8164 165.441 53.21C165.336 53.5993 165.177 53.9378 164.965 54.2256C164.754 54.5091 164.487 54.7313 164.166 54.8921C163.844 55.0487 163.465 55.127 163.029 55.127C162.695 55.127 162.386 55.0804 162.103 54.9873C161.823 54.89 161.582 54.7397 161.379 54.5366C161.18 54.3293 161.023 54.0648 160.909 53.7432C160.799 53.4173 160.744 53.0259 160.744 52.5688V48.1318H162.572V52.5815C162.572 52.7847 162.596 52.9561 162.642 53.0957C162.693 53.2354 162.763 53.3496 162.852 53.4385C162.94 53.5273 163.044 53.5908 163.163 53.6289C163.285 53.667 163.421 53.686 163.569 53.686C163.945 53.686 164.242 53.6099 164.458 53.4575C164.678 53.3052 164.832 53.0978 164.921 52.8354C165.014 52.5688 165.061 52.2726 165.061 51.9468ZM171.789 53.4512V50.3916C171.789 50.1715 171.753 49.9832 171.681 49.8267C171.609 49.6659 171.497 49.541 171.345 49.4521C171.197 49.3633 171.004 49.3188 170.767 49.3188C170.564 49.3188 170.388 49.3548 170.24 49.4268C170.092 49.4945 169.978 49.5939 169.897 49.7251C169.817 49.8521 169.777 50.0023 169.777 50.1758H167.949C167.949 49.8838 168.016 49.6066 168.152 49.3442C168.287 49.0819 168.484 48.8512 168.742 48.6523C169 48.4492 169.307 48.2905 169.663 48.1763C170.022 48.062 170.424 48.0049 170.869 48.0049C171.402 48.0049 171.876 48.0938 172.291 48.2715C172.705 48.4492 173.031 48.7158 173.268 49.0713C173.509 49.4268 173.63 49.8711 173.63 50.4043V53.3433C173.63 53.7199 173.653 54.0288 173.7 54.27C173.746 54.507 173.814 54.7144 173.903 54.8921V55H172.056C171.967 54.8138 171.899 54.5811 171.853 54.3018C171.81 54.0182 171.789 53.7347 171.789 53.4512ZM172.03 50.8169L172.043 51.8516H171.021C170.78 51.8516 170.57 51.8791 170.393 51.9341C170.215 51.9891 170.069 52.0674 169.955 52.1689C169.84 52.2663 169.756 52.3805 169.701 52.5117C169.65 52.6429 169.625 52.7868 169.625 52.9434C169.625 53.0999 169.66 53.2417 169.732 53.3687C169.804 53.4914 169.908 53.5887 170.043 53.6606C170.179 53.7284 170.338 53.7622 170.52 53.7622C170.795 53.7622 171.034 53.7072 171.237 53.5972C171.44 53.4871 171.597 53.3517 171.707 53.1909C171.821 53.0301 171.88 52.8778 171.884 52.7339L172.367 53.5083C172.299 53.6818 172.206 53.8617 172.087 54.0479C171.973 54.234 171.827 54.4097 171.649 54.5747C171.472 54.7355 171.258 54.8688 171.008 54.9746C170.759 55.0762 170.462 55.127 170.12 55.127C169.684 55.127 169.288 55.0402 168.933 54.8667C168.581 54.689 168.302 54.4456 168.095 54.1367C167.892 53.8236 167.79 53.4681 167.79 53.0703C167.79 52.7106 167.858 52.3911 167.993 52.1118C168.129 51.8325 168.327 51.5977 168.59 51.4072C168.856 51.2126 169.189 51.0666 169.586 50.9692C169.984 50.8677 170.445 50.8169 170.97 50.8169H172.03ZM184.332 53.5146V55H179.679V53.5146H184.332ZM180.295 45.7578V55H178.391V45.7578H180.295ZM187.239 48.1318V55H185.405V48.1318H187.239ZM185.291 46.3418C185.291 46.0752 185.384 45.8551 185.57 45.6816C185.756 45.5081 186.006 45.4214 186.319 45.4214C186.628 45.4214 186.875 45.5081 187.062 45.6816C187.252 45.8551 187.347 46.0752 187.347 46.3418C187.347 46.6084 187.252 46.8285 187.062 47.002C186.875 47.1755 186.628 47.2622 186.319 47.2622C186.006 47.2622 185.756 47.1755 185.57 47.002C185.384 46.8285 185.291 46.6084 185.291 46.3418ZM192.463 53.1021C192.463 52.9709 192.425 52.8524 192.349 52.7466C192.273 52.6408 192.131 52.5435 191.924 52.4546C191.721 52.3615 191.427 52.2769 191.042 52.2007C190.694 52.1245 190.371 52.0293 190.07 51.915C189.774 51.7965 189.516 51.6548 189.296 51.4897C189.08 51.3247 188.911 51.13 188.788 50.9058C188.665 50.6772 188.604 50.417 188.604 50.125C188.604 49.8372 188.665 49.5664 188.788 49.3125C188.915 49.0586 189.095 48.8343 189.328 48.6396C189.565 48.4408 189.852 48.2863 190.191 48.1763C190.534 48.062 190.919 48.0049 191.346 48.0049C191.943 48.0049 192.455 48.1001 192.882 48.2905C193.314 48.481 193.644 48.7433 193.873 49.0776C194.105 49.4077 194.222 49.7843 194.222 50.2075H192.394C192.394 50.0298 192.355 49.8711 192.279 49.7314C192.207 49.5876 192.093 49.4754 191.937 49.395C191.784 49.3104 191.585 49.2681 191.34 49.2681C191.137 49.2681 190.961 49.304 190.813 49.376C190.665 49.4437 190.551 49.5368 190.47 49.6553C190.394 49.7695 190.356 49.8965 190.356 50.0361C190.356 50.1419 190.377 50.2371 190.419 50.3218C190.466 50.4022 190.54 50.4762 190.642 50.5439C190.743 50.6117 190.874 50.6751 191.035 50.7344C191.2 50.7894 191.403 50.8402 191.645 50.8867C192.14 50.9883 192.582 51.1216 192.971 51.2866C193.361 51.4474 193.669 51.6675 193.898 51.9468C194.126 52.2218 194.241 52.5837 194.241 53.0322C194.241 53.3369 194.173 53.6162 194.038 53.8701C193.902 54.124 193.708 54.3462 193.454 54.5366C193.2 54.7228 192.895 54.8688 192.54 54.9746C192.188 55.0762 191.793 55.127 191.353 55.127C190.714 55.127 190.172 55.0127 189.728 54.7842C189.287 54.5557 188.953 54.2658 188.725 53.9146C188.5 53.5591 188.388 53.1951 188.388 52.8228H190.121C190.13 53.0724 190.193 53.2734 190.312 53.4258C190.434 53.5781 190.589 53.6882 190.775 53.7559C190.965 53.8236 191.171 53.8574 191.391 53.8574C191.628 53.8574 191.824 53.8257 191.981 53.7622C192.138 53.6945 192.256 53.6056 192.336 53.4956C192.421 53.3813 192.463 53.2502 192.463 53.1021ZM198.792 48.1318V49.4268H194.793V48.1318H198.792ZM195.783 46.437H197.611V52.9307C197.611 53.1296 197.637 53.2819 197.688 53.3877C197.743 53.4935 197.823 53.5675 197.929 53.6099C198.035 53.6479 198.168 53.667 198.329 53.667C198.443 53.667 198.544 53.6628 198.633 53.6543C198.726 53.6416 198.805 53.6289 198.868 53.6162L198.875 54.9619C198.718 55.0127 198.549 55.0529 198.367 55.0825C198.185 55.1121 197.984 55.127 197.764 55.127C197.362 55.127 197.01 55.0614 196.71 54.9302C196.414 54.7948 196.185 54.5789 196.024 54.2827C195.864 53.9865 195.783 53.5972 195.783 53.1147V46.437ZM203.54 53.4512V50.3916C203.54 50.1715 203.504 49.9832 203.432 49.8267C203.36 49.6659 203.248 49.541 203.096 49.4521C202.948 49.3633 202.755 49.3188 202.518 49.3188C202.315 49.3188 202.139 49.3548 201.991 49.4268C201.843 49.4945 201.729 49.5939 201.648 49.7251C201.568 49.8521 201.528 50.0023 201.528 50.1758H199.7C199.7 49.8838 199.767 49.6066 199.903 49.3442C200.038 49.0819 200.235 48.8512 200.493 48.6523C200.751 48.4492 201.058 48.2905 201.414 48.1763C201.773 48.062 202.175 48.0049 202.62 48.0049C203.153 48.0049 203.627 48.0938 204.042 48.2715C204.456 48.4492 204.782 48.7158 205.019 49.0713C205.26 49.4268 205.381 49.8711 205.381 50.4043V53.3433C205.381 53.7199 205.404 54.0288 205.451 54.27C205.497 54.507 205.565 54.7144 205.654 54.8921V55H203.807C203.718 54.8138 203.65 54.5811 203.604 54.3018C203.561 54.0182 203.54 53.7347 203.54 53.4512ZM203.781 50.8169L203.794 51.8516H202.772C202.531 51.8516 202.321 51.8791 202.144 51.9341C201.966 51.9891 201.82 52.0674 201.706 52.1689C201.591 52.2663 201.507 52.3805 201.452 52.5117C201.401 52.6429 201.375 52.7868 201.375 52.9434C201.375 53.0999 201.411 53.2417 201.483 53.3687C201.555 53.4914 201.659 53.5887 201.794 53.6606C201.93 53.7284 202.089 53.7622 202.271 53.7622C202.546 53.7622 202.785 53.7072 202.988 53.5972C203.191 53.4871 203.347 53.3517 203.458 53.1909C203.572 53.0301 203.631 52.8778 203.635 52.7339L204.118 53.5083C204.05 53.6818 203.957 53.8617 203.838 54.0479C203.724 54.234 203.578 54.4097 203.4 54.5747C203.223 54.7355 203.009 54.8688 202.759 54.9746C202.51 55.0762 202.213 55.127 201.871 55.127C201.435 55.127 201.039 55.0402 200.684 54.8667C200.332 54.689 200.053 54.4456 199.846 54.1367C199.643 53.8236 199.541 53.4681 199.541 53.0703C199.541 52.7106 199.609 52.3911 199.744 52.1118C199.88 51.8325 200.078 51.5977 200.341 51.4072C200.607 51.2126 200.94 51.0666 201.337 50.9692C201.735 50.8677 202.196 50.8169 202.721 50.8169H203.781ZM214.083 53.502V45.25H215.924V55H214.268L214.083 53.502ZM209.742 51.6484V51.5151C209.742 50.9904 209.801 50.5143 209.919 50.0869C210.038 49.6553 210.211 49.285 210.44 48.9761C210.668 48.6672 210.95 48.4281 211.284 48.2588C211.618 48.0895 211.999 48.0049 212.427 48.0049C212.829 48.0049 213.18 48.0895 213.48 48.2588C213.785 48.4281 214.043 48.6693 214.255 48.9824C214.471 49.2913 214.644 49.6574 214.775 50.0806C214.907 50.4995 215.002 50.9587 215.061 51.458V51.75C215.002 52.2282 214.907 52.6725 214.775 53.083C214.644 53.4935 214.471 53.8532 214.255 54.1621C214.043 54.4668 213.785 54.7038 213.48 54.873C213.176 55.0423 212.82 55.127 212.414 55.127C211.987 55.127 211.606 55.0402 211.271 54.8667C210.941 54.6932 210.662 54.4499 210.434 54.1367C210.209 53.8236 210.038 53.4554 209.919 53.0322C209.801 52.609 209.742 52.1478 209.742 51.6484ZM211.57 51.5151V51.6484C211.57 51.932 211.591 52.1965 211.633 52.4419C211.68 52.6873 211.754 52.9053 211.855 53.0957C211.961 53.2819 212.097 53.4279 212.262 53.5337C212.431 53.6353 212.636 53.686 212.877 53.686C213.191 53.686 213.449 53.6162 213.652 53.4766C213.855 53.3327 214.009 53.1359 214.115 52.8862C214.225 52.6366 214.289 52.3488 214.306 52.0229V51.1914C214.293 50.9248 214.255 50.6857 214.191 50.4741C214.132 50.2583 214.043 50.0742 213.925 49.9219C213.811 49.7695 213.667 49.651 213.493 49.5664C213.324 49.4818 213.123 49.4395 212.89 49.4395C212.653 49.4395 212.45 49.4945 212.281 49.6045C212.111 49.7103 211.974 49.8563 211.868 50.0425C211.767 50.2287 211.69 50.4487 211.64 50.7026C211.593 50.9523 211.57 51.2231 211.57 51.5151ZM220.514 55.127C219.98 55.127 219.502 55.0423 219.079 54.873C218.656 54.6995 218.296 54.4604 218 54.1558C217.708 53.8511 217.484 53.4977 217.327 53.0957C217.171 52.6895 217.092 52.2578 217.092 51.8008V51.5469C217.092 51.0264 217.166 50.5503 217.314 50.1187C217.463 49.687 217.674 49.3125 217.949 48.9951C218.229 48.6777 218.567 48.4344 218.965 48.2651C219.363 48.0916 219.811 48.0049 220.311 48.0049C220.797 48.0049 221.229 48.0853 221.605 48.2461C221.982 48.4069 222.297 48.6354 222.551 48.9316C222.809 49.2279 223.004 49.5833 223.135 49.998C223.266 50.4085 223.332 50.8656 223.332 51.3691V52.1309H217.873V50.9121H221.536V50.7725C221.536 50.5186 221.489 50.2922 221.396 50.0933C221.307 49.8901 221.172 49.7293 220.99 49.6108C220.808 49.4924 220.575 49.4331 220.292 49.4331C220.05 49.4331 219.843 49.486 219.669 49.5918C219.496 49.6976 219.354 49.8457 219.244 50.0361C219.138 50.2266 219.058 50.4508 219.003 50.709C218.952 50.9629 218.927 51.2422 218.927 51.5469V51.8008C218.927 52.0758 218.965 52.3298 219.041 52.5625C219.121 52.7952 219.234 52.9963 219.377 53.1655C219.526 53.3348 219.703 53.466 219.911 53.5591C220.122 53.6522 220.361 53.6987 220.628 53.6987C220.958 53.6987 221.265 53.6353 221.548 53.5083C221.836 53.3771 222.084 53.1803 222.291 52.918L223.18 53.8828C223.036 54.0902 222.839 54.2891 222.589 54.4795C222.344 54.6699 222.048 54.8265 221.701 54.9492C221.354 55.0677 220.958 55.127 220.514 55.127ZM231.514 45.7578V55H229.616V45.7578H231.514ZM234.358 45.7578V47.2495H226.817V45.7578H234.358ZM238.071 53.4512V50.3916C238.071 50.1715 238.035 49.9832 237.963 49.8267C237.891 49.6659 237.779 49.541 237.627 49.4521C237.479 49.3633 237.286 49.3188 237.049 49.3188C236.846 49.3188 236.671 49.3548 236.522 49.4268C236.374 49.4945 236.26 49.5939 236.18 49.7251C236.099 49.8521 236.059 50.0023 236.059 50.1758H234.231C234.231 49.8838 234.299 49.6066 234.434 49.3442C234.569 49.0819 234.766 48.8512 235.024 48.6523C235.283 48.4492 235.589 48.2905 235.945 48.1763C236.305 48.062 236.707 48.0049 237.151 48.0049C237.684 48.0049 238.158 48.0938 238.573 48.2715C238.987 48.4492 239.313 48.7158 239.55 49.0713C239.792 49.4268 239.912 49.8711 239.912 50.4043V53.3433C239.912 53.7199 239.935 54.0288 239.982 54.27C240.028 54.507 240.096 54.7144 240.185 54.8921V55H238.338C238.249 54.8138 238.181 54.5811 238.135 54.3018C238.092 54.0182 238.071 53.7347 238.071 53.4512ZM238.312 50.8169L238.325 51.8516H237.303C237.062 51.8516 236.853 51.8791 236.675 51.9341C236.497 51.9891 236.351 52.0674 236.237 52.1689C236.123 52.2663 236.038 52.3805 235.983 52.5117C235.932 52.6429 235.907 52.7868 235.907 52.9434C235.907 53.0999 235.943 53.2417 236.015 53.3687C236.087 53.4914 236.19 53.5887 236.326 53.6606C236.461 53.7284 236.62 53.7622 236.802 53.7622C237.077 53.7622 237.316 53.7072 237.519 53.5972C237.722 53.4871 237.879 53.3517 237.989 53.1909C238.103 53.0301 238.162 52.8778 238.167 52.7339L238.649 53.5083C238.581 53.6818 238.488 53.8617 238.37 54.0479C238.255 54.234 238.109 54.4097 237.932 54.5747C237.754 54.7355 237.54 54.8688 237.291 54.9746C237.041 55.0762 236.745 55.127 236.402 55.127C235.966 55.127 235.57 55.0402 235.215 54.8667C234.864 54.689 234.584 54.4456 234.377 54.1367C234.174 53.8236 234.072 53.4681 234.072 53.0703C234.072 52.7106 234.14 52.3911 234.275 52.1118C234.411 51.8325 234.61 51.5977 234.872 51.4072C235.139 51.2126 235.471 51.0666 235.869 50.9692C236.266 50.8677 236.728 50.8169 237.252 50.8169H238.312ZM243.149 49.6299V55H241.321V48.1318H243.042L243.149 49.6299ZM245.219 48.0874L245.187 49.7822C245.098 49.7695 244.99 49.759 244.863 49.7505C244.741 49.7378 244.628 49.7314 244.527 49.7314C244.269 49.7314 244.044 49.7653 243.854 49.833C243.668 49.8965 243.511 49.9917 243.384 50.1187C243.262 50.2456 243.168 50.4001 243.105 50.582C243.046 50.764 243.012 50.9714 243.003 51.2041L242.635 51.0898C242.635 50.6455 242.68 50.2371 242.769 49.8647C242.857 49.4881 242.986 49.1602 243.156 48.8809C243.329 48.6016 243.541 48.3857 243.791 48.2334C244.04 48.0811 244.326 48.0049 244.647 48.0049C244.749 48.0049 244.853 48.0133 244.958 48.0303C245.064 48.043 245.151 48.062 245.219 48.0874ZM249.116 55.127C248.583 55.127 248.105 55.0423 247.682 54.873C247.258 54.6995 246.899 54.4604 246.603 54.1558C246.311 53.8511 246.086 53.4977 245.93 53.0957C245.773 52.6895 245.695 52.2578 245.695 51.8008V51.5469C245.695 51.0264 245.769 50.5503 245.917 50.1187C246.065 49.687 246.277 49.3125 246.552 48.9951C246.831 48.6777 247.17 48.4344 247.567 48.2651C247.965 48.0916 248.414 48.0049 248.913 48.0049C249.4 48.0049 249.831 48.0853 250.208 48.2461C250.585 48.4069 250.9 48.6354 251.154 48.9316C251.412 49.2279 251.607 49.5833 251.738 49.998C251.869 50.4085 251.935 50.8656 251.935 51.3691V52.1309H246.476V50.9121H250.138V50.7725C250.138 50.5186 250.092 50.2922 249.999 50.0933C249.91 49.8901 249.774 49.7293 249.592 49.6108C249.41 49.4924 249.178 49.4331 248.894 49.4331C248.653 49.4331 248.445 49.486 248.272 49.5918C248.098 49.6976 247.957 49.8457 247.847 50.0361C247.741 50.2266 247.66 50.4508 247.605 50.709C247.555 50.9629 247.529 51.2422 247.529 51.5469V51.8008C247.529 52.0758 247.567 52.3298 247.644 52.5625C247.724 52.7952 247.836 52.9963 247.98 53.1655C248.128 53.3348 248.306 53.466 248.513 53.5591C248.725 53.6522 248.964 53.6987 249.23 53.6987C249.561 53.6987 249.867 53.6353 250.151 53.5083C250.439 53.3771 250.686 53.1803 250.894 52.918L251.782 53.8828C251.638 54.0902 251.442 54.2891 251.192 54.4795C250.946 54.6699 250.65 54.8265 250.303 54.9492C249.956 55.0677 249.561 55.127 249.116 55.127ZM255.305 55H253.464V47.5225C253.464 47.002 253.566 46.564 253.769 46.2085C253.976 45.8488 254.266 45.578 254.639 45.396C255.015 45.2098 255.462 45.1167 255.978 45.1167C256.147 45.1167 256.31 45.1294 256.467 45.1548C256.623 45.1759 256.776 45.2035 256.924 45.2373L256.905 46.6147C256.824 46.5936 256.74 46.5788 256.651 46.5703C256.562 46.5618 256.458 46.5576 256.34 46.5576C256.12 46.5576 255.931 46.5957 255.775 46.6719C255.623 46.7438 255.506 46.8517 255.426 46.9956C255.345 47.1395 255.305 47.3151 255.305 47.5225V55ZM256.676 48.1318V49.4268H252.442V48.1318H256.676ZM261.342 53.4512V50.3916C261.342 50.1715 261.306 49.9832 261.234 49.8267C261.162 49.6659 261.05 49.541 260.897 49.4521C260.749 49.3633 260.557 49.3188 260.32 49.3188C260.117 49.3188 259.941 49.3548 259.793 49.4268C259.645 49.4945 259.531 49.5939 259.45 49.7251C259.37 49.8521 259.33 50.0023 259.33 50.1758H257.501C257.501 49.8838 257.569 49.6066 257.705 49.3442C257.84 49.0819 258.037 48.8512 258.295 48.6523C258.553 48.4492 258.86 48.2905 259.215 48.1763C259.575 48.062 259.977 48.0049 260.421 48.0049C260.955 48.0049 261.429 48.0938 261.843 48.2715C262.258 48.4492 262.584 48.7158 262.821 49.0713C263.062 49.4268 263.183 49.8711 263.183 50.4043V53.3433C263.183 53.7199 263.206 54.0288 263.252 54.27C263.299 54.507 263.367 54.7144 263.456 54.8921V55H261.608C261.52 54.8138 261.452 54.5811 261.405 54.3018C261.363 54.0182 261.342 53.7347 261.342 53.4512ZM261.583 50.8169L261.596 51.8516H260.574C260.333 51.8516 260.123 51.8791 259.945 51.9341C259.768 51.9891 259.622 52.0674 259.507 52.1689C259.393 52.2663 259.308 52.3805 259.253 52.5117C259.203 52.6429 259.177 52.7868 259.177 52.9434C259.177 53.0999 259.213 53.2417 259.285 53.3687C259.357 53.4914 259.461 53.5887 259.596 53.6606C259.732 53.7284 259.89 53.7622 260.072 53.7622C260.347 53.7622 260.586 53.7072 260.79 53.5972C260.993 53.4871 261.149 53.3517 261.259 53.1909C261.374 53.0301 261.433 52.8778 261.437 52.7339L261.919 53.5083C261.852 53.6818 261.759 53.8617 261.64 54.0479C261.526 54.234 261.38 54.4097 261.202 54.5747C261.024 54.7355 260.811 54.8688 260.561 54.9746C260.311 55.0762 260.015 55.127 259.672 55.127C259.236 55.127 258.841 55.0402 258.485 54.8667C258.134 54.689 257.855 54.4456 257.647 54.1367C257.444 53.8236 257.343 53.4681 257.343 53.0703C257.343 52.7106 257.41 52.3911 257.546 52.1118C257.681 51.8325 257.88 51.5977 258.143 51.4072C258.409 51.2126 258.741 51.0666 259.139 50.9692C259.537 50.8677 259.998 50.8169 260.523 50.8169H261.583ZM268.305 53.1021C268.305 52.9709 268.267 52.8524 268.191 52.7466C268.115 52.6408 267.973 52.5435 267.766 52.4546C267.562 52.3615 267.268 52.2769 266.883 52.2007C266.536 52.1245 266.213 52.0293 265.912 51.915C265.616 51.7965 265.358 51.6548 265.138 51.4897C264.922 51.3247 264.753 51.13 264.63 50.9058C264.507 50.6772 264.446 50.417 264.446 50.125C264.446 49.8372 264.507 49.5664 264.63 49.3125C264.757 49.0586 264.937 48.8343 265.169 48.6396C265.406 48.4408 265.694 48.2863 266.033 48.1763C266.375 48.062 266.761 48.0049 267.188 48.0049C267.785 48.0049 268.297 48.1001 268.724 48.2905C269.156 48.481 269.486 48.7433 269.714 49.0776C269.947 49.4077 270.063 49.7843 270.063 50.2075H268.235C268.235 50.0298 268.197 49.8711 268.121 49.7314C268.049 49.5876 267.935 49.4754 267.778 49.395C267.626 49.3104 267.427 49.2681 267.182 49.2681C266.979 49.2681 266.803 49.304 266.655 49.376C266.507 49.4437 266.392 49.5368 266.312 49.6553C266.236 49.7695 266.198 49.8965 266.198 50.0361C266.198 50.1419 266.219 50.2371 266.261 50.3218C266.308 50.4022 266.382 50.4762 266.483 50.5439C266.585 50.6117 266.716 50.6751 266.877 50.7344C267.042 50.7894 267.245 50.8402 267.486 50.8867C267.981 50.9883 268.424 51.1216 268.813 51.2866C269.202 51.4474 269.511 51.6675 269.74 51.9468C269.968 52.2218 270.083 52.5837 270.083 53.0322C270.083 53.3369 270.015 53.6162 269.879 53.8701C269.744 54.124 269.549 54.3462 269.295 54.5366C269.042 54.7228 268.737 54.8688 268.381 54.9746C268.03 55.0762 267.634 55.127 267.194 55.127C266.555 55.127 266.014 55.0127 265.569 54.7842C265.129 54.5557 264.795 54.2658 264.566 53.9146C264.342 53.5591 264.23 53.1951 264.23 52.8228H265.963C265.971 53.0724 266.035 53.2734 266.153 53.4258C266.276 53.5781 266.431 53.6882 266.617 53.7559C266.807 53.8236 267.012 53.8574 267.232 53.8574C267.469 53.8574 267.666 53.8257 267.823 53.7622C267.979 53.6945 268.098 53.6056 268.178 53.4956C268.263 53.3813 268.305 53.2502 268.305 53.1021Z" fill="white"/>
<circle cx="347" cy="52" r="10" stroke="#3B82F6" stroke-width="2"/>
<line x1="347" y1="59" x2="347" y2="45" stroke="#3B82F6" stroke-width="2"/>
<line x1="354" y1="52" x2="340" y2="52" stroke="#3B82F6" stroke-width="2"/>
</svg>
