<svg width="402" height="202" viewBox="0 0 402 202" fill="none" xmlns="http://www.w3.org/2000/svg">
<rect x="1" y="1" width="400" height="200" rx="8" fill="#0F172A" stroke="#7DD3FC"/>
<path d="M131.857 53.5146V55H127.205V53.5146H131.857ZM127.82 45.7578V55H125.916V45.7578H127.82ZM134.765 48.1318V55H132.93V48.1318H134.765ZM132.816 46.3418C132.816 46.0752 132.909 45.8551 133.095 45.6816C133.281 45.5081 133.531 45.4214 133.844 45.4214C134.153 45.4214 134.401 45.5081 134.587 45.6816C134.777 45.8551 134.873 46.0752 134.873 46.3418C134.873 46.6084 134.777 46.8285 134.587 47.002C134.401 47.1755 134.153 47.2622 133.844 47.2622C133.531 47.2622 133.281 47.1755 133.095 47.002C132.909 46.8285 132.816 46.6084 132.816 46.3418ZM139.989 53.1021C139.989 52.9709 139.951 52.8524 139.875 52.7466C139.798 52.6408 139.657 52.5435 139.449 52.4546C139.246 52.3615 138.952 52.2769 138.567 52.2007C138.22 52.1245 137.896 52.0293 137.596 51.915C137.299 51.7965 137.041 51.6548 136.821 51.4897C136.605 51.3247 136.436 51.13 136.313 50.9058C136.191 50.6772 136.129 50.417 136.129 50.125C136.129 49.8372 136.191 49.5664 136.313 49.3125C136.44 49.0586 136.62 48.8343 136.853 48.6396C137.09 48.4408 137.378 48.2863 137.716 48.1763C138.059 48.062 138.444 48.0049 138.872 48.0049C139.468 48.0049 139.98 48.1001 140.408 48.2905C140.839 48.481 141.169 48.7433 141.398 49.0776C141.631 49.4077 141.747 49.7843 141.747 50.2075H139.919C139.919 50.0298 139.881 49.8711 139.805 49.7314C139.733 49.5876 139.618 49.4754 139.462 49.395C139.31 49.3104 139.111 49.2681 138.865 49.2681C138.662 49.2681 138.486 49.304 138.338 49.376C138.19 49.4437 138.076 49.5368 137.996 49.6553C137.919 49.7695 137.881 49.8965 137.881 50.0361C137.881 50.1419 137.903 50.2371 137.945 50.3218C137.991 50.4022 138.065 50.4762 138.167 50.5439C138.269 50.6117 138.4 50.6751 138.561 50.7344C138.726 50.7894 138.929 50.8402 139.17 50.8867C139.665 50.9883 140.107 51.1216 140.497 51.2866C140.886 51.4474 141.195 51.6675 141.423 51.9468C141.652 52.2218 141.766 52.5837 141.766 53.0322C141.766 53.3369 141.698 53.6162 141.563 53.8701C141.428 54.124 141.233 54.3462 140.979 54.5366C140.725 54.7228 140.42 54.8688 140.065 54.9746C139.714 55.0762 139.318 55.127 138.878 55.127C138.239 55.127 137.697 55.0127 137.253 54.7842C136.813 54.5557 136.479 54.2658 136.25 53.9146C136.026 53.5591 135.914 53.1951 135.914 52.8228H137.646C137.655 53.0724 137.718 53.2734 137.837 53.4258C137.96 53.5781 138.114 53.6882 138.3 53.7559C138.491 53.8236 138.696 53.8574 138.916 53.8574C139.153 53.8574 139.35 53.8257 139.506 53.7622C139.663 53.6945 139.781 53.6056 139.862 53.4956C139.946 53.3813 139.989 53.2502 139.989 53.1021ZM146.317 48.1318V49.4268H142.318V48.1318H146.317ZM143.309 46.437H145.137V52.9307C145.137 53.1296 145.162 53.2819 145.213 53.3877C145.268 53.4935 145.348 53.5675 145.454 53.6099C145.56 53.6479 145.693 53.667 145.854 53.667C145.968 53.667 146.07 53.6628 146.159 53.6543C146.252 53.6416 146.33 53.6289 146.394 53.6162L146.4 54.9619C146.243 55.0127 146.074 55.0529 145.892 55.0825C145.71 55.1121 145.509 55.127 145.289 55.127C144.887 55.127 144.536 55.0614 144.235 54.9302C143.939 54.7948 143.711 54.5789 143.55 54.2827C143.389 53.9865 143.309 53.5972 143.309 53.1147V46.437ZM151.065 53.4512V50.3916C151.065 50.1715 151.029 49.9832 150.958 49.8267C150.886 49.6659 150.773 49.541 150.621 49.4521C150.473 49.3633 150.28 49.3188 150.043 49.3188C149.84 49.3188 149.665 49.3548 149.517 49.4268C149.368 49.4945 149.254 49.5939 149.174 49.7251C149.093 49.8521 149.053 50.0023 149.053 50.1758H147.225C147.225 49.8838 147.293 49.6066 147.428 49.3442C147.564 49.0819 147.76 48.8512 148.019 48.6523C148.277 48.4492 148.583 48.2905 148.939 48.1763C149.299 48.062 149.701 48.0049 150.145 48.0049C150.678 48.0049 151.152 48.0938 151.567 48.2715C151.982 48.4492 152.307 48.7158 152.544 49.0713C152.786 49.4268 152.906 49.8711 152.906 50.4043V53.3433C152.906 53.7199 152.93 54.0288 152.976 54.27C153.023 54.507 153.09 54.7144 153.179 54.8921V55H151.332C151.243 54.8138 151.175 54.5811 151.129 54.3018C151.087 54.0182 151.065 53.7347 151.065 53.4512ZM151.307 50.8169L151.319 51.8516H150.297C150.056 51.8516 149.847 51.8791 149.669 51.9341C149.491 51.9891 149.345 52.0674 149.231 52.1689C149.117 52.2663 149.032 52.3805 148.977 52.5117C148.926 52.6429 148.901 52.7868 148.901 52.9434C148.901 53.0999 148.937 53.2417 149.009 53.3687C149.081 53.4914 149.184 53.5887 149.32 53.6606C149.455 53.7284 149.614 53.7622 149.796 53.7622C150.071 53.7622 150.31 53.7072 150.513 53.5972C150.716 53.4871 150.873 53.3517 150.983 53.1909C151.097 53.0301 151.156 52.8778 151.161 52.7339L151.643 53.5083C151.575 53.6818 151.482 53.8617 151.364 54.0479C151.25 54.234 151.104 54.4097 150.926 54.5747C150.748 54.7355 150.534 54.8688 150.285 54.9746C150.035 55.0762 149.739 55.127 149.396 55.127C148.96 55.127 148.564 55.0402 148.209 54.8667C147.858 54.689 147.578 54.4456 147.371 54.1367C147.168 53.8236 147.066 53.4681 147.066 53.0703C147.066 52.7106 147.134 52.3911 147.27 52.1118C147.405 51.8325 147.604 51.5977 147.866 51.4072C148.133 51.2126 148.465 51.0666 148.863 50.9692C149.261 50.8677 149.722 50.8169 150.247 50.8169H151.307ZM161.609 53.502V45.25H163.45V55H161.793L161.609 53.502ZM157.267 51.6484V51.5151C157.267 50.9904 157.326 50.5143 157.445 50.0869C157.563 49.6553 157.737 49.285 157.965 48.9761C158.194 48.6672 158.475 48.4281 158.81 48.2588C159.144 48.0895 159.525 48.0049 159.952 48.0049C160.354 48.0049 160.705 48.0895 161.006 48.2588C161.311 48.4281 161.569 48.6693 161.78 48.9824C161.996 49.2913 162.17 49.6574 162.301 50.0806C162.432 50.4995 162.527 50.9587 162.586 51.458V51.75C162.527 52.2282 162.432 52.6725 162.301 53.083C162.17 53.4935 161.996 53.8532 161.78 54.1621C161.569 54.4668 161.311 54.7038 161.006 54.873C160.701 55.0423 160.346 55.127 159.939 55.127C159.512 55.127 159.131 55.0402 158.797 54.8667C158.467 54.6932 158.188 54.4499 157.959 54.1367C157.735 53.8236 157.563 53.4554 157.445 53.0322C157.326 52.609 157.267 52.1478 157.267 51.6484ZM159.095 51.5151V51.6484C159.095 51.932 159.116 52.1965 159.159 52.4419C159.205 52.6873 159.279 52.9053 159.381 53.0957C159.487 53.2819 159.622 53.4279 159.787 53.5337C159.956 53.6353 160.162 53.686 160.403 53.686C160.716 53.686 160.974 53.6162 161.177 53.4766C161.38 53.3327 161.535 53.1359 161.641 52.8862C161.751 52.6366 161.814 52.3488 161.831 52.0229V51.1914C161.818 50.9248 161.78 50.6857 161.717 50.4741C161.658 50.2583 161.569 50.0742 161.45 49.9219C161.336 49.7695 161.192 49.651 161.019 49.5664C160.849 49.4818 160.648 49.4395 160.416 49.4395C160.179 49.4395 159.975 49.4945 159.806 49.6045C159.637 49.7103 159.499 49.8563 159.394 50.0425C159.292 50.2287 159.216 50.4487 159.165 50.7026C159.118 50.9523 159.095 51.2231 159.095 51.5151ZM168.039 55.127C167.506 55.127 167.028 55.0423 166.604 54.873C166.181 54.6995 165.822 54.4604 165.525 54.1558C165.233 53.8511 165.009 53.4977 164.853 53.0957C164.696 52.6895 164.618 52.2578 164.618 51.8008V51.5469C164.618 51.0264 164.692 50.5503 164.84 50.1187C164.988 49.687 165.2 49.3125 165.475 48.9951C165.754 48.6777 166.092 48.4344 166.49 48.2651C166.888 48.0916 167.337 48.0049 167.836 48.0049C168.323 48.0049 168.754 48.0853 169.131 48.2461C169.507 48.4069 169.823 48.6354 170.077 48.9316C170.335 49.2279 170.529 49.5833 170.661 49.998C170.792 50.4085 170.857 50.8656 170.857 51.3691V52.1309H165.398V50.9121H169.061V50.7725C169.061 50.5186 169.014 50.2922 168.921 50.0933C168.833 49.8901 168.697 49.7293 168.515 49.6108C168.333 49.4924 168.1 49.4331 167.817 49.4331C167.576 49.4331 167.368 49.486 167.195 49.5918C167.021 49.6976 166.88 49.8457 166.77 50.0361C166.664 50.2266 166.583 50.4508 166.528 50.709C166.478 50.9629 166.452 51.2422 166.452 51.5469V51.8008C166.452 52.0758 166.49 52.3298 166.566 52.5625C166.647 52.7952 166.759 52.9963 166.903 53.1655C167.051 53.3348 167.229 53.466 167.436 53.5591C167.648 53.6522 167.887 53.6987 168.153 53.6987C168.483 53.6987 168.79 53.6353 169.074 53.5083C169.361 53.3771 169.609 53.1803 169.816 52.918L170.705 53.8828C170.561 54.0902 170.364 54.2891 170.115 54.4795C169.869 54.6699 169.573 54.8265 169.226 54.9492C168.879 55.0677 168.483 55.127 168.039 55.127ZM179.04 45.7578V55H177.142V45.7578H179.04ZM181.883 45.7578V47.2495H174.342V45.7578H181.883ZM185.597 53.4512V50.3916C185.597 50.1715 185.561 49.9832 185.489 49.8267C185.417 49.6659 185.305 49.541 185.152 49.4521C185.004 49.3633 184.812 49.3188 184.575 49.3188C184.372 49.3188 184.196 49.3548 184.048 49.4268C183.9 49.4945 183.785 49.5939 183.705 49.7251C183.625 49.8521 183.584 50.0023 183.584 50.1758H181.756C181.756 49.8838 181.824 49.6066 181.959 49.3442C182.095 49.0819 182.292 48.8512 182.55 48.6523C182.808 48.4492 183.115 48.2905 183.47 48.1763C183.83 48.062 184.232 48.0049 184.676 48.0049C185.209 48.0049 185.683 48.0938 186.098 48.2715C186.513 48.4492 186.839 48.7158 187.076 49.0713C187.317 49.4268 187.438 49.8711 187.438 50.4043V53.3433C187.438 53.7199 187.461 54.0288 187.507 54.27C187.554 54.507 187.622 54.7144 187.71 54.8921V55H185.863C185.774 54.8138 185.707 54.5811 185.66 54.3018C185.618 54.0182 185.597 53.7347 185.597 53.4512ZM185.838 50.8169L185.851 51.8516H184.829C184.587 51.8516 184.378 51.8791 184.2 51.9341C184.022 51.9891 183.876 52.0674 183.762 52.1689C183.648 52.2663 183.563 52.3805 183.508 52.5117C183.458 52.6429 183.432 52.7868 183.432 52.9434C183.432 53.0999 183.468 53.2417 183.54 53.3687C183.612 53.4914 183.716 53.5887 183.851 53.6606C183.986 53.7284 184.145 53.7622 184.327 53.7622C184.602 53.7622 184.841 53.7072 185.044 53.5972C185.248 53.4871 185.404 53.3517 185.514 53.1909C185.628 53.0301 185.688 52.8778 185.692 52.7339L186.174 53.5083C186.107 53.6818 186.014 53.8617 185.895 54.0479C185.781 54.234 185.635 54.4097 185.457 54.5747C185.279 54.7355 185.066 54.8688 184.816 54.9746C184.566 55.0762 184.27 55.127 183.927 55.127C183.491 55.127 183.096 55.0402 182.74 54.8667C182.389 54.689 182.11 54.4456 181.902 54.1367C181.699 53.8236 181.598 53.4681 181.598 53.0703C181.598 52.7106 181.665 52.3911 181.801 52.1118C181.936 51.8325 182.135 51.5977 182.397 51.4072C182.664 51.2126 182.996 51.0666 183.394 50.9692C183.792 50.8677 184.253 50.8169 184.778 50.8169H185.838ZM190.675 49.6299V55H188.847V48.1318H190.567L190.675 49.6299ZM192.744 48.0874L192.712 49.7822C192.624 49.7695 192.516 49.759 192.389 49.7505C192.266 49.7378 192.154 49.7314 192.052 49.7314C191.794 49.7314 191.57 49.7653 191.379 49.833C191.193 49.8965 191.037 49.9917 190.91 50.1187C190.787 50.2456 190.694 50.4001 190.63 50.582C190.571 50.764 190.537 50.9714 190.529 51.2041L190.161 51.0898C190.161 50.6455 190.205 50.2371 190.294 49.8647C190.383 49.4881 190.512 49.1602 190.681 48.8809C190.855 48.6016 191.066 48.3857 191.316 48.2334C191.566 48.0811 191.851 48.0049 192.173 48.0049C192.274 48.0049 192.378 48.0133 192.484 48.0303C192.59 48.043 192.676 48.062 192.744 48.0874ZM196.642 55.127C196.108 55.127 195.63 55.0423 195.207 54.873C194.784 54.6995 194.424 54.4604 194.128 54.1558C193.836 53.8511 193.612 53.4977 193.455 53.0957C193.299 52.6895 193.22 52.2578 193.22 51.8008V51.5469C193.22 51.0264 193.294 50.5503 193.442 50.1187C193.59 49.687 193.802 49.3125 194.077 48.9951C194.356 48.6777 194.695 48.4344 195.093 48.2651C195.491 48.0916 195.939 48.0049 196.438 48.0049C196.925 48.0049 197.357 48.0853 197.733 48.2461C198.11 48.4069 198.425 48.6354 198.679 48.9316C198.937 49.2279 199.132 49.5833 199.263 49.998C199.394 50.4085 199.46 50.8656 199.46 51.3691V52.1309H194.001V50.9121H197.664V50.7725C197.664 50.5186 197.617 50.2922 197.524 50.0933C197.435 49.8901 197.3 49.7293 197.118 49.6108C196.936 49.4924 196.703 49.4331 196.419 49.4331C196.178 49.4331 195.971 49.486 195.797 49.5918C195.624 49.6976 195.482 49.8457 195.372 50.0361C195.266 50.2266 195.186 50.4508 195.131 50.709C195.08 50.9629 195.055 51.2422 195.055 51.5469V51.8008C195.055 52.0758 195.093 52.3298 195.169 52.5625C195.249 52.7952 195.361 52.9963 195.505 53.1655C195.653 53.3348 195.831 53.466 196.039 53.5591C196.25 53.6522 196.489 53.6987 196.756 53.6987C197.086 53.6987 197.393 53.6353 197.676 53.5083C197.964 53.3771 198.212 53.1803 198.419 52.918L199.308 53.8828C199.164 54.0902 198.967 54.2891 198.717 54.4795C198.472 54.6699 198.176 54.8265 197.829 54.9492C197.482 55.0677 197.086 55.127 196.642 55.127ZM202.831 55H200.99V47.5225C200.99 47.002 201.091 46.564 201.294 46.2085C201.502 45.8488 201.792 45.578 202.164 45.396C202.541 45.2098 202.987 45.1167 203.503 45.1167C203.673 45.1167 203.836 45.1294 203.992 45.1548C204.149 45.1759 204.301 45.2035 204.449 45.2373L204.43 46.6147C204.35 46.5936 204.265 46.5788 204.176 46.5703C204.087 46.5618 203.984 46.5576 203.865 46.5576C203.645 46.5576 203.457 46.5957 203.3 46.6719C203.148 46.7438 203.032 46.8517 202.951 46.9956C202.871 47.1395 202.831 47.3151 202.831 47.5225V55ZM204.202 48.1318V49.4268H199.968V48.1318H204.202ZM208.867 53.4512V50.3916C208.867 50.1715 208.831 49.9832 208.759 49.8267C208.687 49.6659 208.575 49.541 208.423 49.4521C208.275 49.3633 208.082 49.3188 207.845 49.3188C207.642 49.3188 207.466 49.3548 207.318 49.4268C207.17 49.4945 207.056 49.5939 206.976 49.7251C206.895 49.8521 206.855 50.0023 206.855 50.1758H205.027C205.027 49.8838 205.095 49.6066 205.23 49.3442C205.365 49.0819 205.562 48.8512 205.82 48.6523C206.078 48.4492 206.385 48.2905 206.741 48.1763C207.1 48.062 207.502 48.0049 207.947 48.0049C208.48 48.0049 208.954 48.0938 209.369 48.2715C209.783 48.4492 210.109 48.7158 210.346 49.0713C210.587 49.4268 210.708 49.8711 210.708 50.4043V53.3433C210.708 53.7199 210.731 54.0288 210.778 54.27C210.824 54.507 210.892 54.7144 210.981 54.8921V55H209.134C209.045 54.8138 208.977 54.5811 208.931 54.3018C208.888 54.0182 208.867 53.7347 208.867 53.4512ZM209.108 50.8169L209.121 51.8516H208.099C207.858 51.8516 207.648 51.8791 207.471 51.9341C207.293 51.9891 207.147 52.0674 207.033 52.1689C206.918 52.2663 206.834 52.3805 206.779 52.5117C206.728 52.6429 206.703 52.7868 206.703 52.9434C206.703 53.0999 206.739 53.2417 206.811 53.3687C206.882 53.4914 206.986 53.5887 207.122 53.6606C207.257 53.7284 207.416 53.7622 207.598 53.7622C207.873 53.7622 208.112 53.7072 208.315 53.5972C208.518 53.4871 208.675 53.3517 208.785 53.1909C208.899 53.0301 208.958 52.8778 208.962 52.7339L209.445 53.5083C209.377 53.6818 209.284 53.8617 209.166 54.0479C209.051 54.234 208.905 54.4097 208.728 54.5747C208.55 54.7355 208.336 54.8688 208.086 54.9746C207.837 55.0762 207.541 55.127 207.198 55.127C206.762 55.127 206.366 55.0402 206.011 54.8667C205.66 54.689 205.38 54.4456 205.173 54.1367C204.97 53.8236 204.868 53.4681 204.868 53.0703C204.868 52.7106 204.936 52.3911 205.071 52.1118C205.207 51.8325 205.406 51.5977 205.668 51.4072C205.935 51.2126 206.267 51.0666 206.665 50.9692C207.062 50.8677 207.524 50.8169 208.048 50.8169H209.108ZM212.187 54.1177C212.187 53.8468 212.28 53.6204 212.466 53.4385C212.657 53.2565 212.909 53.1655 213.222 53.1655C213.535 53.1655 213.785 53.2565 213.971 53.4385C214.161 53.6204 214.256 53.8468 214.256 54.1177C214.256 54.3885 214.161 54.6149 213.971 54.7969C213.785 54.9788 213.535 55.0698 213.222 55.0698C212.909 55.0698 212.657 54.9788 212.466 54.7969C212.28 54.6149 212.187 54.3885 212.187 54.1177ZM212.187 48.8809C212.187 48.61 212.28 48.3836 212.466 48.2017C212.657 48.0197 212.909 47.9287 213.222 47.9287C213.535 47.9287 213.785 48.0197 213.971 48.2017C214.161 48.3836 214.256 48.61 214.256 48.8809C214.256 49.1517 214.161 49.3781 213.971 49.5601C213.785 49.742 213.535 49.833 213.222 49.833C212.909 49.833 212.657 49.742 212.466 49.5601C212.28 49.3781 212.187 49.1517 212.187 48.8809ZM224.495 51.9341H226.393C226.355 52.5562 226.184 53.1084 225.879 53.5908C225.578 54.0732 225.157 54.4499 224.616 54.7207C224.078 54.9915 223.431 55.127 222.673 55.127C222.081 55.127 221.55 55.0254 221.08 54.8223C220.61 54.6149 220.208 54.3187 219.874 53.9336C219.544 53.5485 219.292 53.083 219.119 52.5371C218.945 51.9912 218.858 51.3797 218.858 50.7026V50.0615C218.858 49.3844 218.947 48.7729 219.125 48.2271C219.307 47.6769 219.565 47.2093 219.899 46.8242C220.238 46.4391 220.642 46.1429 221.112 45.9355C221.582 45.7282 222.106 45.6245 222.686 45.6245C223.456 45.6245 224.106 45.7642 224.635 46.0435C225.168 46.3228 225.581 46.7078 225.873 47.1987C226.169 47.6896 226.347 48.2482 226.406 48.8745H224.501C224.48 48.5021 224.406 48.1868 224.279 47.9287C224.152 47.6663 223.96 47.4696 223.702 47.3384C223.448 47.203 223.109 47.1353 222.686 47.1353C222.369 47.1353 222.091 47.1945 221.854 47.313C221.618 47.4315 221.419 47.6113 221.258 47.8525C221.097 48.0938 220.976 48.3984 220.896 48.7666C220.82 49.1305 220.782 49.5579 220.782 50.0488V50.7026C220.782 51.1808 220.818 51.6019 220.89 51.9658C220.962 52.3255 221.072 52.6302 221.22 52.8799C221.372 53.1253 221.567 53.3115 221.804 53.4385C222.045 53.5612 222.335 53.6226 222.673 53.6226C223.071 53.6226 223.399 53.5591 223.657 53.4321C223.915 53.3052 224.112 53.1169 224.248 52.8672C224.387 52.6175 224.47 52.3065 224.495 51.9341ZM227.237 51.6357V51.5024C227.237 50.9989 227.309 50.5355 227.453 50.1123C227.597 49.6849 227.806 49.3146 228.082 49.0015C228.357 48.6883 228.695 48.445 229.097 48.2715C229.499 48.0938 229.96 48.0049 230.481 48.0049C231.001 48.0049 231.465 48.0938 231.871 48.2715C232.277 48.445 232.618 48.6883 232.893 49.0015C233.172 49.3146 233.384 49.6849 233.528 50.1123C233.672 50.5355 233.744 50.9989 233.744 51.5024V51.6357C233.744 52.1351 233.672 52.5985 233.528 53.0259C233.384 53.4491 233.172 53.8193 232.893 54.1367C232.618 54.4499 232.279 54.6932 231.877 54.8667C231.475 55.0402 231.014 55.127 230.494 55.127C229.973 55.127 229.51 55.0402 229.104 54.8667C228.701 54.6932 228.361 54.4499 228.082 54.1367C227.806 53.8193 227.597 53.4491 227.453 53.0259C227.309 52.5985 227.237 52.1351 227.237 51.6357ZM229.065 51.5024V51.6357C229.065 51.9235 229.091 52.1922 229.142 52.4419C229.192 52.6916 229.273 52.9116 229.383 53.1021C229.497 53.2882 229.645 53.4342 229.827 53.54C230.009 53.6458 230.231 53.6987 230.494 53.6987C230.748 53.6987 230.965 53.6458 231.147 53.54C231.329 53.4342 231.475 53.2882 231.585 53.1021C231.695 52.9116 231.776 52.6916 231.827 52.4419C231.882 52.1922 231.909 51.9235 231.909 51.6357V51.5024C231.909 51.2231 231.882 50.9608 231.827 50.7153C231.776 50.4657 231.693 50.2456 231.579 50.0552C231.469 49.8605 231.323 49.7082 231.141 49.5981C230.959 49.4881 230.739 49.4331 230.481 49.4331C230.223 49.4331 230.003 49.4881 229.821 49.5981C229.643 49.7082 229.497 49.8605 229.383 50.0552C229.273 50.2456 229.192 50.4657 229.142 50.7153C229.091 50.9608 229.065 51.2231 229.065 51.5024ZM236.695 49.5537V55H234.861V48.1318H236.581L236.695 49.5537ZM236.441 51.3247H235.934C235.934 50.8465 235.991 50.4064 236.105 50.0044C236.223 49.5981 236.395 49.2469 236.619 48.9507C236.848 48.6502 237.129 48.4175 237.463 48.2524C237.798 48.0874 238.185 48.0049 238.625 48.0049C238.93 48.0049 239.209 48.0514 239.463 48.1445C239.717 48.2334 239.935 48.3752 240.117 48.5698C240.303 48.7603 240.447 49.0099 240.548 49.3188C240.65 49.6235 240.701 49.9896 240.701 50.417V55H238.873V50.6201C238.873 50.307 238.83 50.0658 238.746 49.8965C238.661 49.7272 238.54 49.6087 238.384 49.541C238.231 49.4733 238.047 49.4395 237.832 49.4395C237.595 49.4395 237.387 49.4881 237.209 49.5854C237.036 49.6828 236.892 49.8182 236.778 49.9917C236.664 50.161 236.579 50.3599 236.524 50.5884C236.469 50.8169 236.441 51.0623 236.441 51.3247ZM240.529 51.1152L239.875 51.1978C239.875 50.7492 239.931 50.3324 240.041 49.9473C240.155 49.5622 240.322 49.2236 240.542 48.9316C240.766 48.6396 241.043 48.4132 241.374 48.2524C241.704 48.0874 242.084 48.0049 242.516 48.0049C242.846 48.0049 243.147 48.0535 243.417 48.1509C243.688 48.244 243.919 48.3942 244.109 48.6016C244.304 48.8047 244.452 49.0713 244.554 49.4014C244.66 49.7314 244.712 50.1356 244.712 50.6138V55H242.878V50.6138C242.878 50.2964 242.836 50.0552 242.751 49.8901C242.671 49.7209 242.552 49.6045 242.396 49.541C242.243 49.4733 242.061 49.4395 241.85 49.4395C241.63 49.4395 241.437 49.4839 241.272 49.5728C241.107 49.6574 240.969 49.7759 240.859 49.9282C240.749 50.0806 240.667 50.2583 240.612 50.4614C240.557 50.6603 240.529 50.8783 240.529 51.1152ZM247.956 49.4521V57.6406H246.128V48.1318H247.823L247.956 49.4521ZM252.304 51.4897V51.623C252.304 52.1224 252.245 52.5858 252.126 53.0132C252.012 53.4406 251.843 53.813 251.619 54.1304C251.394 54.4435 251.115 54.689 250.781 54.8667C250.451 55.0402 250.07 55.127 249.638 55.127C249.219 55.127 248.855 55.0423 248.546 54.873C248.237 54.7038 247.977 54.4668 247.766 54.1621C247.558 53.8532 247.391 53.4956 247.264 53.0894C247.137 52.6831 247.04 52.2472 246.972 51.7817V51.4326C247.04 50.9333 247.137 50.4762 247.264 50.0615C247.391 49.6426 247.558 49.2808 247.766 48.9761C247.977 48.6672 248.235 48.4281 248.54 48.2588C248.849 48.0895 249.211 48.0049 249.625 48.0049C250.061 48.0049 250.444 48.0874 250.774 48.2524C251.109 48.4175 251.388 48.6545 251.612 48.9634C251.841 49.2723 252.012 49.6405 252.126 50.0679C252.245 50.4953 252.304 50.9692 252.304 51.4897ZM250.47 51.623V51.4897C250.47 51.1978 250.444 50.929 250.394 50.6836C250.347 50.4339 250.271 50.216 250.165 50.0298C250.063 49.8436 249.928 49.6997 249.759 49.5981C249.594 49.4924 249.393 49.4395 249.156 49.4395C248.906 49.4395 248.692 49.4797 248.515 49.5601C248.341 49.6405 248.199 49.7568 248.089 49.9092C247.979 50.0615 247.897 50.2435 247.842 50.4551C247.787 50.6667 247.753 50.9058 247.74 51.1724V52.0547C247.761 52.3678 247.821 52.6493 247.918 52.8989C248.015 53.1444 248.166 53.339 248.369 53.4829C248.572 53.6268 248.838 53.6987 249.168 53.6987C249.41 53.6987 249.613 53.6458 249.778 53.54C249.943 53.43 250.076 53.2798 250.178 53.0894C250.284 52.8989 250.358 52.6789 250.4 52.4292C250.446 52.1795 250.47 51.9108 250.47 51.623ZM255.269 49.6299V55H253.44V48.1318H255.161L255.269 49.6299ZM257.338 48.0874L257.306 49.7822C257.217 49.7695 257.109 49.759 256.982 49.7505C256.86 49.7378 256.748 49.7314 256.646 49.7314C256.388 49.7314 256.164 49.7653 255.973 49.833C255.787 49.8965 255.63 49.9917 255.503 50.1187C255.381 50.2456 255.288 50.4001 255.224 50.582C255.165 50.764 255.131 50.9714 255.123 51.2041L254.754 51.0898C254.754 50.6455 254.799 50.2371 254.888 49.8647C254.977 49.4881 255.106 49.1602 255.275 48.8809C255.448 48.6016 255.66 48.3857 255.91 48.2334C256.159 48.0811 256.445 48.0049 256.767 48.0049C256.868 48.0049 256.972 48.0133 257.078 48.0303C257.183 48.043 257.27 48.062 257.338 48.0874ZM261.692 53.4512V50.3916C261.692 50.1715 261.656 49.9832 261.584 49.8267C261.513 49.6659 261.4 49.541 261.248 49.4521C261.1 49.3633 260.907 49.3188 260.67 49.3188C260.467 49.3188 260.292 49.3548 260.144 49.4268C259.995 49.4945 259.881 49.5939 259.801 49.7251C259.72 49.8521 259.68 50.0023 259.68 50.1758H257.852C257.852 49.8838 257.92 49.6066 258.055 49.3442C258.191 49.0819 258.387 48.8512 258.646 48.6523C258.904 48.4492 259.21 48.2905 259.566 48.1763C259.926 48.062 260.328 48.0049 260.772 48.0049C261.305 48.0049 261.779 48.0938 262.194 48.2715C262.609 48.4492 262.934 48.7158 263.171 49.0713C263.413 49.4268 263.533 49.8711 263.533 50.4043V53.3433C263.533 53.7199 263.556 54.0288 263.603 54.27C263.65 54.507 263.717 54.7144 263.806 54.8921V55H261.959C261.87 54.8138 261.802 54.5811 261.756 54.3018C261.714 54.0182 261.692 53.7347 261.692 53.4512ZM261.934 50.8169L261.946 51.8516H260.924C260.683 51.8516 260.474 51.8791 260.296 51.9341C260.118 51.9891 259.972 52.0674 259.858 52.1689C259.744 52.2663 259.659 52.3805 259.604 52.5117C259.553 52.6429 259.528 52.7868 259.528 52.9434C259.528 53.0999 259.564 53.2417 259.636 53.3687C259.708 53.4914 259.811 53.5887 259.947 53.6606C260.082 53.7284 260.241 53.7622 260.423 53.7622C260.698 53.7622 260.937 53.7072 261.14 53.5972C261.343 53.4871 261.5 53.3517 261.61 53.1909C261.724 53.0301 261.783 52.8778 261.788 52.7339L262.27 53.5083C262.202 53.6818 262.109 53.8617 261.991 54.0479C261.876 54.234 261.73 54.4097 261.553 54.5747C261.375 54.7355 261.161 54.8688 260.912 54.9746C260.662 55.0762 260.366 55.127 260.023 55.127C259.587 55.127 259.191 55.0402 258.836 54.8667C258.485 54.689 258.205 54.4456 257.998 54.1367C257.795 53.8236 257.693 53.4681 257.693 53.0703C257.693 52.7106 257.761 52.3911 257.896 52.1118C258.032 51.8325 258.231 51.5977 258.493 51.4072C258.76 51.2126 259.092 51.0666 259.49 50.9692C259.888 50.8677 260.349 50.8169 260.874 50.8169H261.934ZM268.656 53.1021C268.656 52.9709 268.618 52.8524 268.542 52.7466C268.465 52.6408 268.324 52.5435 268.116 52.4546C267.913 52.3615 267.619 52.2769 267.234 52.2007C266.887 52.1245 266.563 52.0293 266.263 51.915C265.966 51.7965 265.708 51.6548 265.488 51.4897C265.272 51.3247 265.103 51.13 264.98 50.9058C264.858 50.6772 264.796 50.417 264.796 50.125C264.796 49.8372 264.858 49.5664 264.98 49.3125C265.107 49.0586 265.287 48.8343 265.52 48.6396C265.757 48.4408 266.045 48.2863 266.383 48.1763C266.726 48.062 267.111 48.0049 267.539 48.0049C268.135 48.0049 268.647 48.1001 269.075 48.2905C269.506 48.481 269.836 48.7433 270.065 49.0776C270.298 49.4077 270.414 49.7843 270.414 50.2075H268.586C268.586 50.0298 268.548 49.8711 268.472 49.7314C268.4 49.5876 268.285 49.4754 268.129 49.395C267.977 49.3104 267.778 49.2681 267.532 49.2681C267.329 49.2681 267.153 49.304 267.005 49.376C266.857 49.4437 266.743 49.5368 266.663 49.6553C266.586 49.7695 266.548 49.8965 266.548 50.0361C266.548 50.1419 266.569 50.2371 266.612 50.3218C266.658 50.4022 266.732 50.4762 266.834 50.5439C266.936 50.6117 267.067 50.6751 267.228 50.7344C267.393 50.7894 267.596 50.8402 267.837 50.8867C268.332 50.9883 268.774 51.1216 269.164 51.2866C269.553 51.4474 269.862 51.6675 270.09 51.9468C270.319 52.2218 270.433 52.5837 270.433 53.0322C270.433 53.3369 270.365 53.6162 270.23 53.8701C270.095 54.124 269.9 54.3462 269.646 54.5366C269.392 54.7228 269.087 54.8688 268.732 54.9746C268.381 55.0762 267.985 55.127 267.545 55.127C266.906 55.127 266.364 55.0127 265.92 54.7842C265.48 54.5557 265.146 54.2658 264.917 53.9146C264.693 53.5591 264.581 53.1951 264.581 52.8228H266.313C266.322 53.0724 266.385 53.2734 266.504 53.4258C266.627 53.5781 266.781 53.6882 266.967 53.7559C267.158 53.8236 267.363 53.8574 267.583 53.8574C267.82 53.8574 268.017 53.8257 268.173 53.7622C268.33 53.6945 268.448 53.6056 268.529 53.4956C268.613 53.3813 268.656 53.2502 268.656 53.1021Z" fill="white"/>
<circle cx="49" cy="49" r="10" stroke="#3B82F6" stroke-width="2"/>
<line x1="55" y1="49" x2="43" y2="49" stroke="#3B82F6" stroke-width="2"/>
<path d="M50.3486 44L43.4596 48.9555" stroke="#3B82F6" stroke-width="2" stroke-linejoin="round"/>
<path d="M51 54L42.95 48.819" stroke="#3B82F6" stroke-width="2"/>
<ellipse cx="43.5" cy="49" rx="1.5" ry="1" fill="#3B82F6"/>
<circle cx="347" cy="52" r="10" stroke="#3B82F6" stroke-width="2"/>
<line x1="347" y1="59" x2="347" y2="45" stroke="#3B82F6" stroke-width="2"/>
<line x1="354" y1="52" x2="340" y2="52" stroke="#3B82F6" stroke-width="2"/>
<rect x="36.5" y="70.5" width="323" height="29" fill="#0F172A" stroke="white"/>
<path d="M304.75 95.125C304.75 95.5375 305.163 95.875 305.667 95.875H309.333C309.838 95.875 310.25 95.5375 310.25 95.125V90.625H304.75V95.125ZM305.878 92.455L306.524 91.9263L307.5 92.7213L308.472 91.9263L309.118 92.455L308.146 93.25L309.118 94.045L308.472 94.5738L307.5 93.7787L306.528 94.5738L305.882 94.045L306.854 93.25L305.878 92.455ZM309.104 89.5L308.646 89.125H306.354L305.896 89.5H304.292V90.25H310.708V89.5H309.104Z" fill="#3B82F6"/>
<path d="M293.5 89.125H299.5C299.599 89.125 299.695 89.1645 299.765 89.2348C299.835 89.3052 299.875 89.4005 299.875 89.5V95.5C299.875 95.5995 299.835 95.6948 299.765 95.7652C299.695 95.8355 299.599 95.875 299.5 95.875H293.5C293.401 95.875 293.305 95.8355 293.235 95.7652C293.165 95.6948 293.125 95.5995 293.125 95.5V89.5C293.125 89.4005 293.165 89.3052 293.235 89.2348C293.305 89.1645 293.401 89.125 293.5 89.125V89.125ZM293.875 89.875V95.125H299.125V89.875H293.875Z" fill="#3B82F6"/>
<path d="M283.265 94.6094C283.283 94.6094 283.3 94.6076 283.318 94.605L284.796 94.3457C284.814 94.3422 284.83 94.3343 284.843 94.3211L288.568 90.5954C288.576 90.5873 288.583 90.5776 288.587 90.567C288.592 90.5564 288.594 90.545 288.594 90.5334C288.594 90.5219 288.592 90.5105 288.587 90.4999C288.583 90.4893 288.576 90.4796 288.568 90.4715L287.108 89.0099C287.091 88.9932 287.069 88.9844 287.045 88.9844C287.021 88.9844 286.999 88.9932 286.983 89.0099L283.257 92.7355C283.244 92.7487 283.236 92.7646 283.232 92.7821L282.973 94.2604C282.965 94.3075 282.968 94.356 282.982 94.4016C282.996 94.4473 283.022 94.4887 283.056 94.5224C283.114 94.5786 283.187 94.6094 283.265 94.6094V94.6094ZM283.857 93.0766L287.045 89.8896L287.689 90.5339L284.502 93.7208L283.72 93.8588L283.857 93.0766V93.0766ZM288.734 95.3477H282.266C282.11 95.3477 281.984 95.4733 281.984 95.6289V95.9453C281.984 95.984 282.016 96.0156 282.055 96.0156H288.945C288.984 96.0156 289.016 95.984 289.016 95.9453V95.6289C289.016 95.4733 288.89 95.3477 288.734 95.3477Z" fill="#3B82F6"/>
<rect x="36.25" y="70.25" width="323.5" height="15.5" fill="#1E3A8A" stroke="white" stroke-width="0.5"/>
<path d="M285.968 75.1064L284.034 81H282.477L285.118 73.8906H286.109L285.968 75.1064ZM287.574 81L285.636 75.1064L285.479 73.8906H286.48L289.137 81H287.574ZM287.486 78.3535V79.501H283.731V78.3535H287.486ZM291.891 79.999C292.063 79.999 292.216 79.9665 292.35 79.9014C292.483 79.833 292.587 79.7386 292.662 79.6182C292.74 79.4945 292.781 79.3496 292.784 79.1836H294.107C294.104 79.5547 294.005 79.8851 293.81 80.1748C293.614 80.4613 293.352 80.6875 293.023 80.8535C292.695 81.0163 292.327 81.0977 291.92 81.0977C291.51 81.0977 291.152 81.0293 290.846 80.8926C290.543 80.7559 290.291 80.5671 290.089 80.3262C289.887 80.082 289.736 79.7988 289.635 79.4766C289.534 79.151 289.483 78.8027 289.483 78.4316V78.29C289.483 77.9157 289.534 77.5674 289.635 77.2451C289.736 76.9196 289.887 76.6364 290.089 76.3955C290.291 76.1514 290.543 75.9609 290.846 75.8242C291.148 75.6875 291.503 75.6191 291.91 75.6191C292.343 75.6191 292.722 75.7021 293.048 75.8682C293.377 76.0342 293.634 76.2718 293.819 76.5811C294.008 76.887 294.104 77.25 294.107 77.6699H292.784C292.781 77.4941 292.743 77.3346 292.672 77.1914C292.604 77.0482 292.503 76.9342 292.369 76.8496C292.239 76.7617 292.078 76.7178 291.886 76.7178C291.681 76.7178 291.513 76.7617 291.383 76.8496C291.253 76.9342 291.152 77.0514 291.08 77.2012C291.008 77.3477 290.958 77.5153 290.929 77.7041C290.903 77.8896 290.89 78.085 290.89 78.29V78.4316C290.89 78.6367 290.903 78.8337 290.929 79.0225C290.955 79.2113 291.004 79.3789 291.075 79.5254C291.15 79.6719 291.253 79.7874 291.383 79.8721C291.513 79.9567 291.682 79.999 291.891 79.999ZM291.363 80.9805H292.423L292.369 81.2686C292.555 81.3011 292.724 81.3792 292.877 81.5029C293.03 81.6266 293.106 81.8301 293.106 82.1133C293.106 82.2858 293.069 82.4421 292.994 82.582C292.923 82.722 292.815 82.8424 292.672 82.9434C292.529 83.0475 292.35 83.1257 292.135 83.1777C291.92 83.2331 291.673 83.2607 291.393 83.2607L291.358 82.4795C291.463 82.4795 291.557 82.4648 291.642 82.4355C291.726 82.4062 291.793 82.3607 291.842 82.2988C291.891 82.2402 291.915 82.1621 291.915 82.0645C291.915 81.9733 291.891 81.9017 291.842 81.8496C291.793 81.7975 291.716 81.7585 291.612 81.7324C291.511 81.7064 291.378 81.6885 291.212 81.6787L291.363 80.9805ZM294.698 78.4121V78.3096C294.698 77.9222 294.754 77.5658 294.864 77.2402C294.975 76.9115 295.136 76.6266 295.348 76.3857C295.559 76.1449 295.82 75.9577 296.129 75.8242C296.438 75.6875 296.793 75.6191 297.193 75.6191C297.594 75.6191 297.95 75.6875 298.263 75.8242C298.575 75.9577 298.837 76.1449 299.049 76.3857C299.264 76.6266 299.426 76.9115 299.537 77.2402C299.648 77.5658 299.703 77.9222 299.703 78.3096V78.4121C299.703 78.7962 299.648 79.1527 299.537 79.4814C299.426 79.807 299.264 80.0918 299.049 80.3359C298.837 80.5768 298.577 80.764 298.268 80.8975C297.958 81.0309 297.604 81.0977 297.203 81.0977C296.803 81.0977 296.446 81.0309 296.134 80.8975C295.825 80.764 295.562 80.5768 295.348 80.3359C295.136 80.0918 294.975 79.807 294.864 79.4814C294.754 79.1527 294.698 78.7962 294.698 78.4121ZM296.104 78.3096V78.4121C296.104 78.6335 296.124 78.8402 296.163 79.0322C296.202 79.2243 296.264 79.3936 296.349 79.54C296.437 79.6833 296.55 79.7956 296.69 79.877C296.83 79.9583 297.001 79.999 297.203 79.999C297.398 79.999 297.566 79.9583 297.706 79.877C297.846 79.7956 297.958 79.6833 298.043 79.54C298.128 79.3936 298.189 79.2243 298.229 79.0322C298.271 78.8402 298.292 78.6335 298.292 78.4121V78.3096C298.292 78.0947 298.271 77.8929 298.229 77.7041C298.189 77.512 298.126 77.3428 298.038 77.1963C297.953 77.0465 297.841 76.9294 297.701 76.8447C297.561 76.7601 297.392 76.7178 297.193 76.7178C296.995 76.7178 296.826 76.7601 296.686 76.8447C296.549 76.9294 296.437 77.0465 296.349 77.1963C296.264 77.3428 296.202 77.512 296.163 77.7041C296.124 77.8929 296.104 78.0947 296.104 78.3096ZM298.209 73.5244L299.02 73.5781C299.02 73.8158 298.972 74.0322 298.878 74.2275C298.784 74.4196 298.653 74.5742 298.487 74.6914C298.321 74.8053 298.131 74.8623 297.916 74.8623C297.76 74.8623 297.625 74.8411 297.511 74.7988C297.4 74.7565 297.298 74.7077 297.203 74.6523C297.109 74.5938 297.011 74.5433 296.91 74.501C296.812 74.4587 296.7 74.4375 296.573 74.4375C296.459 74.4375 296.362 74.4782 296.28 74.5596C296.202 74.641 296.163 74.7581 296.163 74.9111L295.348 74.8672C295.348 74.6328 295.395 74.418 295.489 74.2227C295.584 74.0273 295.714 73.8711 295.88 73.7539C296.046 73.6335 296.235 73.5732 296.446 73.5732C296.58 73.5732 296.702 73.596 296.812 73.6416C296.923 73.6839 297.029 73.7327 297.13 73.7881C297.234 73.8434 297.34 73.8923 297.447 73.9346C297.555 73.9769 297.669 73.998 297.789 73.998C297.903 73.998 298.001 73.9574 298.082 73.876C298.167 73.7913 298.209 73.6742 298.209 73.5244ZM302.999 81.0977C302.589 81.0977 302.221 81.0326 301.896 80.9023C301.57 80.7689 301.293 80.585 301.065 80.3506C300.841 80.1162 300.668 79.8444 300.548 79.5352C300.427 79.2227 300.367 78.8906 300.367 78.5391V78.3438C300.367 77.9434 300.424 77.5771 300.538 77.2451C300.652 76.9131 300.815 76.625 301.026 76.3809C301.241 76.1367 301.502 75.9495 301.808 75.8193C302.114 75.6859 302.459 75.6191 302.843 75.6191C303.217 75.6191 303.549 75.681 303.839 75.8047C304.129 75.9284 304.371 76.1042 304.566 76.332C304.765 76.5599 304.915 76.8333 305.016 77.1523C305.117 77.4681 305.167 77.8197 305.167 78.207V78.793H300.968V77.8555H303.785V77.748C303.785 77.5527 303.749 77.3786 303.678 77.2256C303.609 77.0693 303.505 76.9456 303.365 76.8545C303.225 76.7633 303.046 76.7178 302.828 76.7178C302.643 76.7178 302.483 76.7585 302.35 76.8398C302.216 76.9212 302.107 77.0352 302.022 77.1816C301.941 77.3281 301.879 77.5007 301.837 77.6992C301.798 77.8945 301.778 78.1094 301.778 78.3438V78.5391C301.778 78.7507 301.808 78.946 301.866 79.125C301.928 79.304 302.014 79.4587 302.125 79.5889C302.239 79.7191 302.376 79.82 302.535 79.8916C302.698 79.9632 302.882 79.999 303.087 79.999C303.341 79.999 303.577 79.9502 303.795 79.8525C304.016 79.7516 304.207 79.6003 304.366 79.3984L305.05 80.1406C304.939 80.3001 304.788 80.4531 304.596 80.5996C304.407 80.7461 304.179 80.8665 303.912 80.9609C303.645 81.0521 303.341 81.0977 302.999 81.0977ZM308.824 79.54C308.824 79.4391 308.795 79.348 308.736 79.2666C308.678 79.1852 308.569 79.1104 308.409 79.042C308.253 78.9704 308.027 78.9053 307.73 78.8467C307.464 78.7881 307.215 78.7148 306.983 78.627C306.756 78.5358 306.557 78.4268 306.388 78.2998C306.222 78.1729 306.091 78.0231 305.997 77.8506C305.903 77.6748 305.855 77.4746 305.855 77.25C305.855 77.0286 305.903 76.8203 305.997 76.625C306.095 76.4297 306.233 76.2572 306.412 76.1074C306.594 75.9544 306.816 75.8356 307.076 75.751C307.34 75.6631 307.636 75.6191 307.965 75.6191C308.424 75.6191 308.818 75.6924 309.146 75.8389C309.479 75.9854 309.732 76.1872 309.908 76.4443C310.087 76.6982 310.177 76.988 310.177 77.3135H308.771C308.771 77.1768 308.741 77.0547 308.683 76.9473C308.627 76.8366 308.539 76.7503 308.419 76.6885C308.302 76.6234 308.149 76.5908 307.96 76.5908C307.804 76.5908 307.669 76.6185 307.555 76.6738C307.441 76.7259 307.353 76.7975 307.291 76.8887C307.232 76.9766 307.203 77.0742 307.203 77.1816C307.203 77.263 307.219 77.3363 307.252 77.4014C307.288 77.4632 307.345 77.5202 307.423 77.5723C307.501 77.6243 307.602 77.6732 307.726 77.7188C307.853 77.7611 308.009 77.8001 308.194 77.8359C308.575 77.9141 308.915 78.0166 309.215 78.1436C309.514 78.2673 309.752 78.4365 309.928 78.6514C310.104 78.863 310.191 79.1413 310.191 79.4863C310.191 79.7207 310.139 79.9355 310.035 80.1309C309.931 80.3262 309.781 80.4971 309.586 80.6436C309.391 80.7868 309.156 80.8991 308.883 80.9805C308.613 81.0586 308.308 81.0977 307.97 81.0977C307.478 81.0977 307.062 81.0098 306.72 80.834C306.381 80.6582 306.124 80.4352 305.948 80.165C305.776 79.8916 305.689 79.6117 305.689 79.3252H307.022C307.029 79.5173 307.078 79.6719 307.169 79.7891C307.263 79.9062 307.382 79.9909 307.525 80.043C307.672 80.0951 307.83 80.1211 307.999 80.1211C308.181 80.1211 308.333 80.0967 308.453 80.0479C308.574 79.9958 308.665 79.9274 308.727 79.8428C308.792 79.7549 308.824 79.654 308.824 79.54Z" fill="white"/>
<path d="M82.8896 73.8906V81H81.4297V73.8906H82.8896ZM85.0771 73.8906V75.0381H79.2764V73.8906H85.0771ZM87.9336 79.8086V77.4551C87.9336 77.2858 87.9059 77.141 87.8506 77.0205C87.7952 76.8968 87.709 76.8008 87.5918 76.7324C87.4779 76.6641 87.3298 76.6299 87.1475 76.6299C86.9912 76.6299 86.8561 76.6576 86.7422 76.7129C86.6283 76.765 86.5404 76.8415 86.4785 76.9424C86.4167 77.04 86.3857 77.1556 86.3857 77.2891H84.9795C84.9795 77.0645 85.0316 76.8512 85.1357 76.6494C85.2399 76.4476 85.3913 76.2702 85.5898 76.1172C85.7884 75.9609 86.0244 75.8389 86.2979 75.751C86.5745 75.6631 86.8838 75.6191 87.2256 75.6191C87.6357 75.6191 88.0003 75.6875 88.3193 75.8242C88.6383 75.9609 88.889 76.166 89.0713 76.4395C89.2568 76.7129 89.3496 77.0547 89.3496 77.4648V79.7256C89.3496 80.0153 89.3675 80.2529 89.4033 80.4385C89.4391 80.6208 89.4912 80.7803 89.5596 80.917V81H88.1387C88.0703 80.8568 88.0182 80.6777 87.9824 80.4629C87.9499 80.2448 87.9336 80.0267 87.9336 79.8086ZM88.1191 77.7822L88.1289 78.5781H87.3428C87.1572 78.5781 86.9961 78.5993 86.8594 78.6416C86.7227 78.6839 86.6104 78.7441 86.5225 78.8223C86.4346 78.8971 86.3695 78.985 86.3271 79.0859C86.2881 79.1868 86.2686 79.2975 86.2686 79.418C86.2686 79.5384 86.2962 79.6475 86.3516 79.7451C86.4069 79.8395 86.4867 79.9144 86.5908 79.9697C86.695 80.0218 86.8171 80.0479 86.957 80.0479C87.1686 80.0479 87.3525 80.0055 87.5088 79.9209C87.665 79.8363 87.7855 79.7321 87.8701 79.6084C87.958 79.4847 88.0036 79.3675 88.0068 79.2568L88.3779 79.8525C88.3258 79.986 88.2542 80.1243 88.1631 80.2676C88.0752 80.4108 87.9629 80.5459 87.8262 80.6729C87.6895 80.7965 87.5251 80.8991 87.333 80.9805C87.141 81.0586 86.9131 81.0977 86.6494 81.0977C86.3141 81.0977 86.0098 81.0309 85.7363 80.8975C85.4661 80.7607 85.2513 80.5736 85.0918 80.3359C84.9355 80.0951 84.8574 79.8216 84.8574 79.5156C84.8574 79.2389 84.9095 78.9932 85.0137 78.7783C85.1178 78.5635 85.2708 78.3828 85.4727 78.2363C85.6777 78.0866 85.9333 77.9743 86.2393 77.8994C86.5452 77.8213 86.9001 77.7822 87.3037 77.7822H88.1191ZM91.8398 76.8691V81H90.4336V75.7168H91.7568L91.8398 76.8691ZM93.4316 75.6826L93.4072 76.9863C93.3389 76.9766 93.2559 76.9684 93.1582 76.9619C93.0638 76.9521 92.9775 76.9473 92.8994 76.9473C92.7008 76.9473 92.5283 76.9733 92.3818 77.0254C92.2386 77.0742 92.1182 77.1475 92.0205 77.2451C91.9261 77.3428 91.8545 77.4616 91.8057 77.6016C91.7601 77.7415 91.734 77.901 91.7275 78.0801L91.4443 77.9922C91.4443 77.6504 91.4785 77.3363 91.5469 77.0498C91.6152 76.7601 91.7145 76.5078 91.8447 76.293C91.9782 76.0781 92.141 75.9121 92.333 75.7949C92.5251 75.6777 92.7448 75.6191 92.9922 75.6191C93.0703 75.6191 93.1501 75.6257 93.2314 75.6387C93.3128 75.6484 93.3796 75.6631 93.4316 75.6826ZM96.4297 81.0977C96.0195 81.0977 95.6517 81.0326 95.3262 80.9023C95.0007 80.7689 94.724 80.585 94.4961 80.3506C94.2715 80.1162 94.099 79.8444 93.9785 79.5352C93.8581 79.2227 93.7979 78.8906 93.7979 78.5391V78.3438C93.7979 77.9434 93.8548 77.5771 93.9688 77.2451C94.0827 76.9131 94.2454 76.625 94.457 76.3809C94.6719 76.1367 94.9323 75.9495 95.2383 75.8193C95.5443 75.6859 95.8893 75.6191 96.2734 75.6191C96.6478 75.6191 96.9798 75.681 97.2695 75.8047C97.5592 75.9284 97.8018 76.1042 97.9971 76.332C98.1956 76.5599 98.3454 76.8333 98.4463 77.1523C98.5472 77.4681 98.5977 77.8197 98.5977 78.207V78.793H94.3984V77.8555H97.2158V77.748C97.2158 77.5527 97.18 77.3786 97.1084 77.2256C97.04 77.0693 96.9359 76.9456 96.7959 76.8545C96.6559 76.7633 96.4769 76.7178 96.2588 76.7178C96.0732 76.7178 95.9137 76.7585 95.7803 76.8398C95.6468 76.9212 95.5378 77.0352 95.4531 77.1816C95.3717 77.3281 95.3099 77.5007 95.2676 77.6992C95.2285 77.8945 95.209 78.1094 95.209 78.3438V78.5391C95.209 78.7507 95.2383 78.946 95.2969 79.125C95.3587 79.304 95.445 79.4587 95.5557 79.5889C95.6696 79.7191 95.8063 79.82 95.9658 79.8916C96.1286 79.9632 96.3125 79.999 96.5176 79.999C96.7715 79.999 97.0075 79.9502 97.2256 79.8525C97.4469 79.7516 97.6374 79.6003 97.7969 79.3984L98.4805 80.1406C98.3698 80.3001 98.2184 80.4531 98.0264 80.5996C97.8376 80.7461 97.6097 80.8665 97.3428 80.9609C97.0758 81.0521 96.7715 81.0977 96.4297 81.0977ZM101.19 81H99.7744V75.248C99.7744 74.8477 99.8525 74.5107 100.009 74.2373C100.168 73.9606 100.391 73.7523 100.678 73.6123C100.967 73.4691 101.311 73.3975 101.708 73.3975C101.838 73.3975 101.964 73.4072 102.084 73.4268C102.204 73.443 102.322 73.4642 102.436 73.4902L102.421 74.5498C102.359 74.5335 102.294 74.5221 102.226 74.5156C102.157 74.5091 102.077 74.5059 101.986 74.5059C101.817 74.5059 101.672 74.5352 101.552 74.5938C101.435 74.6491 101.345 74.7321 101.283 74.8428C101.221 74.9535 101.19 75.0885 101.19 75.248V81ZM102.245 75.7168V76.7129H98.9883V75.7168H102.245ZM105.834 79.8086V77.4551C105.834 77.2858 105.806 77.141 105.751 77.0205C105.696 76.8968 105.609 76.8008 105.492 76.7324C105.378 76.6641 105.23 76.6299 105.048 76.6299C104.892 76.6299 104.757 76.6576 104.643 76.7129C104.529 76.765 104.441 76.8415 104.379 76.9424C104.317 77.04 104.286 77.1556 104.286 77.2891H102.88C102.88 77.0645 102.932 76.8512 103.036 76.6494C103.14 76.4476 103.292 76.2702 103.49 76.1172C103.689 75.9609 103.925 75.8389 104.198 75.751C104.475 75.6631 104.784 75.6191 105.126 75.6191C105.536 75.6191 105.901 75.6875 106.22 75.8242C106.539 75.9609 106.789 76.166 106.972 76.4395C107.157 76.7129 107.25 77.0547 107.25 77.4648V79.7256C107.25 80.0153 107.268 80.2529 107.304 80.4385C107.34 80.6208 107.392 80.7803 107.46 80.917V81H106.039C105.971 80.8568 105.919 80.6777 105.883 80.4629C105.85 80.2448 105.834 80.0267 105.834 79.8086ZM106.02 77.7822L106.029 78.5781H105.243C105.058 78.5781 104.896 78.5993 104.76 78.6416C104.623 78.6839 104.511 78.7441 104.423 78.8223C104.335 78.8971 104.27 78.985 104.228 79.0859C104.188 79.1868 104.169 79.2975 104.169 79.418C104.169 79.5384 104.197 79.6475 104.252 79.7451C104.307 79.8395 104.387 79.9144 104.491 79.9697C104.595 80.0218 104.717 80.0479 104.857 80.0479C105.069 80.0479 105.253 80.0055 105.409 79.9209C105.565 79.8363 105.686 79.7321 105.771 79.6084C105.858 79.4847 105.904 79.3675 105.907 79.2568L106.278 79.8525C106.226 79.986 106.155 80.1243 106.063 80.2676C105.976 80.4108 105.863 80.5459 105.727 80.6729C105.59 80.7965 105.425 80.8991 105.233 80.9805C105.041 81.0586 104.813 81.0977 104.55 81.0977C104.215 81.0977 103.91 81.0309 103.637 80.8975C103.367 80.7607 103.152 80.5736 102.992 80.3359C102.836 80.0951 102.758 79.8216 102.758 79.5156C102.758 79.2389 102.81 78.9932 102.914 78.7783C103.018 78.5635 103.171 78.3828 103.373 78.2363C103.578 78.0866 103.834 77.9743 104.14 77.8994C104.446 77.8213 104.8 77.7822 105.204 77.7822H106.02ZM111.19 79.54C111.19 79.4391 111.161 79.348 111.103 79.2666C111.044 79.1852 110.935 79.1104 110.775 79.042C110.619 78.9704 110.393 78.9053 110.097 78.8467C109.83 78.7881 109.581 78.7148 109.35 78.627C109.122 78.5358 108.923 78.4268 108.754 78.2998C108.588 78.1729 108.458 78.0231 108.363 77.8506C108.269 77.6748 108.222 77.4746 108.222 77.25C108.222 77.0286 108.269 76.8203 108.363 76.625C108.461 76.4297 108.599 76.2572 108.778 76.1074C108.961 75.9544 109.182 75.8356 109.442 75.751C109.706 75.6631 110.002 75.6191 110.331 75.6191C110.79 75.6191 111.184 75.6924 111.513 75.8389C111.845 75.9854 112.099 76.1872 112.274 76.4443C112.453 76.6982 112.543 76.988 112.543 77.3135H111.137C111.137 77.1768 111.107 77.0547 111.049 76.9473C110.993 76.8366 110.906 76.7503 110.785 76.6885C110.668 76.6234 110.515 76.5908 110.326 76.5908C110.17 76.5908 110.035 76.6185 109.921 76.6738C109.807 76.7259 109.719 76.7975 109.657 76.8887C109.599 76.9766 109.569 77.0742 109.569 77.1816C109.569 77.263 109.586 77.3363 109.618 77.4014C109.654 77.4632 109.711 77.5202 109.789 77.5723C109.867 77.6243 109.968 77.6732 110.092 77.7188C110.219 77.7611 110.375 77.8001 110.561 77.8359C110.941 77.9141 111.282 78.0166 111.581 78.1436C111.881 78.2673 112.118 78.4365 112.294 78.6514C112.47 78.863 112.558 79.1413 112.558 79.4863C112.558 79.7207 112.506 79.9355 112.401 80.1309C112.297 80.3262 112.147 80.4971 111.952 80.6436C111.757 80.7868 111.522 80.8991 111.249 80.9805C110.979 81.0586 110.674 81.0977 110.336 81.0977C109.844 81.0977 109.428 81.0098 109.086 80.834C108.747 80.6582 108.49 80.4352 108.314 80.165C108.142 79.8916 108.056 79.6117 108.056 79.3252H109.389C109.395 79.5173 109.444 79.6719 109.535 79.7891C109.63 79.9062 109.748 79.9909 109.892 80.043C110.038 80.0951 110.196 80.1211 110.365 80.1211C110.548 80.1211 110.699 80.0967 110.819 80.0479C110.94 79.9958 111.031 79.9274 111.093 79.8428C111.158 79.7549 111.19 79.654 111.19 79.54Z" fill="white"/>
<path d="M90.9727 92.9727H89.5234V92.0586H90.9727C91.1966 92.0586 91.3789 92.0221 91.5195 91.9492C91.6602 91.8737 91.763 91.7695 91.8281 91.6367C91.8932 91.5039 91.9258 91.3542 91.9258 91.1875C91.9258 91.0182 91.8932 90.8607 91.8281 90.7148C91.763 90.569 91.6602 90.4518 91.5195 90.3633C91.3789 90.2747 91.1966 90.2305 90.9727 90.2305H89.9297V95H88.7578V89.3125H90.9727C91.418 89.3125 91.7995 89.3932 92.1172 89.5547C92.4375 89.7135 92.6823 89.9336 92.8516 90.2148C93.0208 90.4961 93.1055 90.8177 93.1055 91.1797C93.1055 91.5469 93.0208 91.8646 92.8516 92.1328C92.6823 92.401 92.4375 92.6081 92.1172 92.7539C91.7995 92.8997 91.418 92.9727 90.9727 92.9727ZM95.7344 95.0781C95.4062 95.0781 95.112 95.026 94.8516 94.9219C94.5911 94.8151 94.3698 94.668 94.1875 94.4805C94.0078 94.293 93.8698 94.0755 93.7734 93.8281C93.6771 93.5781 93.6289 93.3125 93.6289 93.0312V92.875C93.6289 92.5547 93.6745 92.2617 93.7656 91.9961C93.8568 91.7305 93.987 91.5 94.1562 91.3047C94.3281 91.1094 94.5365 90.9596 94.7812 90.8555C95.026 90.7487 95.3021 90.6953 95.6094 90.6953C95.9089 90.6953 96.1745 90.7448 96.4062 90.8438C96.638 90.9427 96.832 91.0833 96.9883 91.2656C97.1471 91.4479 97.2669 91.6667 97.3477 91.9219C97.4284 92.1745 97.4688 92.4557 97.4688 92.7656V93.2344H94.1094V92.4844H96.3633V92.3984C96.3633 92.2422 96.3346 92.1029 96.2773 91.9805C96.2227 91.8555 96.1393 91.7565 96.0273 91.6836C95.9154 91.6107 95.7721 91.5742 95.5977 91.5742C95.4492 91.5742 95.3216 91.6068 95.2148 91.6719C95.1081 91.737 95.0208 91.8281 94.9531 91.9453C94.888 92.0625 94.8385 92.2005 94.8047 92.3594C94.7734 92.5156 94.7578 92.6875 94.7578 92.875V93.0312C94.7578 93.2005 94.7812 93.3568 94.8281 93.5C94.8776 93.6432 94.9466 93.7669 95.0352 93.8711C95.1263 93.9753 95.2357 94.056 95.3633 94.1133C95.4935 94.1706 95.6406 94.1992 95.8047 94.1992C96.0078 94.1992 96.1966 94.1602 96.3711 94.082C96.5482 94.0013 96.7005 93.8802 96.8281 93.7188L97.375 94.3125C97.2865 94.4401 97.1654 94.5625 97.0117 94.6797C96.8607 94.7969 96.6784 94.8932 96.4648 94.9688C96.2513 95.0417 96.0078 95.0781 95.7344 95.0781ZM99.2344 91.6953V95H98.1094V90.7734H99.168L99.2344 91.6953ZM100.508 90.7461L100.488 91.7891C100.434 91.7812 100.367 91.7747 100.289 91.7695C100.214 91.7617 100.145 91.7578 100.082 91.7578C99.9232 91.7578 99.7852 91.7786 99.668 91.8203C99.5534 91.8594 99.457 91.918 99.3789 91.9961C99.3034 92.0742 99.2461 92.1693 99.207 92.2812C99.1706 92.3932 99.1497 92.5208 99.1445 92.6641L98.918 92.5938C98.918 92.3203 98.9453 92.069 99 91.8398C99.0547 91.6081 99.1341 91.4062 99.2383 91.2344C99.3451 91.0625 99.4753 90.9297 99.6289 90.8359C99.7826 90.7422 99.9583 90.6953 100.156 90.6953C100.219 90.6953 100.283 90.7005 100.348 90.7109C100.413 90.7188 100.466 90.7305 100.508 90.7461ZM103.188 94.0469V92.1641C103.188 92.0286 103.165 91.9128 103.121 91.8164C103.077 91.7174 103.008 91.6406 102.914 91.5859C102.823 91.5312 102.704 91.5039 102.559 91.5039C102.434 91.5039 102.326 91.526 102.234 91.5703C102.143 91.612 102.073 91.6732 102.023 91.7539C101.974 91.832 101.949 91.9245 101.949 92.0312H100.824C100.824 91.8516 100.866 91.681 100.949 91.5195C101.033 91.3581 101.154 91.2161 101.312 91.0938C101.471 90.9688 101.66 90.8711 101.879 90.8008C102.1 90.7305 102.348 90.6953 102.621 90.6953C102.949 90.6953 103.241 90.75 103.496 90.8594C103.751 90.9688 103.952 91.1328 104.098 91.3516C104.246 91.5703 104.32 91.8438 104.32 92.1719V93.9805C104.32 94.2122 104.335 94.4023 104.363 94.5508C104.392 94.6966 104.434 94.8242 104.488 94.9336V95H103.352C103.297 94.8854 103.255 94.7422 103.227 94.5703C103.201 94.3958 103.188 94.2214 103.188 94.0469ZM103.336 92.4258L103.344 93.0625H102.715C102.566 93.0625 102.438 93.0794 102.328 93.1133C102.219 93.1471 102.129 93.1953 102.059 93.2578C101.988 93.3177 101.936 93.388 101.902 93.4688C101.871 93.5495 101.855 93.638 101.855 93.7344C101.855 93.8307 101.878 93.918 101.922 93.9961C101.966 94.0716 102.03 94.1315 102.113 94.1758C102.197 94.2174 102.294 94.2383 102.406 94.2383C102.576 94.2383 102.723 94.2044 102.848 94.1367C102.973 94.069 103.069 93.9857 103.137 93.8867C103.207 93.7878 103.243 93.694 103.246 93.6055L103.543 94.082C103.501 94.1888 103.444 94.2995 103.371 94.4141C103.301 94.5286 103.211 94.6367 103.102 94.7383C102.992 94.8372 102.861 94.9193 102.707 94.9844C102.553 95.0469 102.371 95.0781 102.16 95.0781C101.892 95.0781 101.648 95.0247 101.43 94.918C101.214 94.8086 101.042 94.6589 100.914 94.4688C100.789 94.276 100.727 94.0573 100.727 93.8125C100.727 93.5911 100.768 93.3945 100.852 93.2227C100.935 93.0508 101.057 92.9062 101.219 92.7891C101.383 92.6693 101.587 92.5794 101.832 92.5195C102.077 92.457 102.361 92.4258 102.684 92.4258H103.336Z" fill="white"/>
</svg>
